<svg viewBox="0 0 560 280" xmlns="http://www.w3.org/2000/svg">
  <defs>
    <linearGradient id="bg" x1="0%" y1="0%" x2="100%" y2="100%">
      <stop offset="0%" stop-color="#1a0818"/>
      <stop offset="100%" stop-color="#0d1117"/>
    </linearGradient>
    <radialGradient id="glow" cx="50%" cy="50%" r="55%">
      <stop offset="0%" stop-color="#EC4899" stop-opacity="0.09"/>
      <stop offset="100%" stop-color="#EC4899" stop-opacity="0"/>
    </radialGradient>
  </defs>
  <rect width="560" height="280" fill="url(#bg)"/>
  <rect width="560" height="280" fill="url(#glow)"/>

  <text x="280" y="24" fill="#EC4899" font-family="sans-serif" font-size="10" text-anchor="middle" font-weight="bold" letter-spacing="2">ICDL LEVELS 4 &amp; 5 — ADVANCED PROFESSIONAL SKILLS</text>

  <!-- IT Security panel -->
  <rect x="20" y="36" width="240" height="110" rx="8" fill="#161b22" stroke="#ef4444" stroke-opacity="0.3" stroke-width="1.5"/>
  <text x="35" y="57" fill="#ef4444" font-family="sans-serif" font-size="10" font-weight="bold">🔐 IT Security</text>

  <rect x="30" y="64" width="216" height="18" rx="4" fill="#10B981" fill-opacity="0.08" stroke="#10B981" stroke-opacity="0.3" stroke-width="1"/>
  <text x="38" y="76" fill="#10B981" font-family="monospace" font-size="8">✓ Access Control Policies</text>

  <rect x="30" y="86" width="216" height="18" rx="4" fill="#10B981" fill-opacity="0.08" stroke="#10B981" stroke-opacity="0.3" stroke-width="1"/>
  <text x="38" y="98" fill="#10B981" font-family="monospace" font-size="8">✓ Data Backup Strategies</text>

  <rect x="30" y="108" width="216" height="18" rx="4" fill="#10B981" fill-opacity="0.08" stroke="#10B981" stroke-opacity="0.3" stroke-width="1"/>
  <text x="38" y="120" fill="#10B981" font-family="monospace" font-size="8">✓ Compliance &amp; GDPR Basics</text>

  <rect x="30" y="130" width="216" height="12" rx="4" fill="#ef4444" fill-opacity="0.08" stroke="#ef4444" stroke-opacity="0.25" stroke-width="1"/>
  <text x="38" y="139" fill="#ef4444" font-family="monospace" font-size="8">✗ Threat: Ransomware detected</text>

  <!-- Project planning panel -->
  <rect x="276" y="36" width="266" height="110" rx="8" fill="#161b22" stroke="#8b5cf6" stroke-opacity="0.3" stroke-width="1.5"/>
  <text x="291" y="57" fill="#8b5cf6" font-family="sans-serif" font-size="10" font-weight="bold">📅 Project Planning</text>

  <!-- Gantt chart mini -->
  <rect x="291" y="64" width="238" height="72" rx="4" fill="#0d1117"/>
  <!-- Gantt rows -->
  <text x="298" y="76" fill="#8b949e" font-family="monospace" font-size="7.5">Phase</text>
  <text x="350" y="76" fill="#8b949e" font-family="monospace" font-size="7.5">Week 1</text>
  <text x="395" y="76" fill="#8b949e" font-family="monospace" font-size="7.5">Week 2</text>
  <text x="440" y="76" fill="#8b949e" font-family="monospace" font-size="7.5">Week 3</text>
  <line x1="291" y1="80" x2="529" y2="80" stroke="#30363d" stroke-width="0.5"/>

  <text x="298" y="92" fill="#cdd9e5" font-family="monospace" font-size="7.5">Research</text>
  <rect x="346" y="84" width="78" height="10" rx="3" fill="#8b5cf6" fill-opacity="0.7"/>

  <text x="298" y="108" fill="#cdd9e5" font-family="monospace" font-size="7.5">Design</text>
  <rect x="346" y="100" width="50" height="10" rx="3" fill="#EC4899" fill-opacity="0.7"/>

  <text x="298" y="124" fill="#cdd9e5" font-family="monospace" font-size="7.5">Build</text>
  <rect x="392" y="116" width="80" height="10" rx="3" fill="#10B981" fill-opacity="0.7"/>

  <text x="298" y="140" fill="#10B981" font-family="monospace" font-size="7.5">Deploy ✓</text>
  <rect x="440" y="132" width="40" height="10" rx="3" fill="#10B981"/>

  <!-- Computational thinking -->
  <rect x="20" y="156" width="240" height="106" rx="8" fill="#161b22" stroke="#f59e0b" stroke-opacity="0.3" stroke-width="1.5"/>
  <text x="35" y="177" fill="#f59e0b" font-family="sans-serif" font-size="10" font-weight="bold">🧠 Computational Thinking</text>

  <rect x="30" y="184" width="104" height="34" rx="6" fill="#f59e0b" fill-opacity="0.1" stroke="#f59e0b" stroke-opacity="0.3" stroke-width="1"/>
  <text x="82" y="197" fill="#f59e0b" font-family="sans-serif" font-size="8" text-anchor="middle" font-weight="bold">Decompose</text>
  <text x="82" y="210" fill="#6e7681" font-family="sans-serif" font-size="7" text-anchor="middle">Break it down</text>

  <rect x="144" y="184" width="104" height="34" rx="6" fill="#8b5cf6" fill-opacity="0.1" stroke="#8b5cf6" stroke-opacity="0.3" stroke-width="1"/>
  <text x="196" y="197" fill="#8b5cf6" font-family="sans-serif" font-size="8" text-anchor="middle" font-weight="bold">Pattern</text>
  <text x="196" y="210" fill="#6e7681" font-family="sans-serif" font-size="7" text-anchor="middle">Find patterns</text>

  <rect x="30" y="224" width="104" height="34" rx="6" fill="#38bdf8" fill-opacity="0.1" stroke="#38bdf8" stroke-opacity="0.3" stroke-width="1"/>
  <text x="82" y="237" fill="#38bdf8" font-family="sans-serif" font-size="8" text-anchor="middle" font-weight="bold">Abstraction</text>
  <text x="82" y="250" fill="#6e7681" font-family="sans-serif" font-size="7" text-anchor="middle">Focus essentials</text>

  <rect x="144" y="224" width="104" height="34" rx="6" fill="#10B981" fill-opacity="0.1" stroke="#10B981" stroke-opacity="0.3" stroke-width="1"/>
  <text x="196" y="237" fill="#10B981" font-family="sans-serif" font-size="8" text-anchor="middle" font-weight="bold">Algorithm</text>
  <text x="196" y="250" fill="#6e7681" font-family="sans-serif" font-size="7" text-anchor="middle">Step-by-step</text>

  <!-- Advanced Excel panel -->
  <rect x="276" y="156" width="266" height="106" rx="8" fill="#161b22" stroke="#30363d" stroke-width="1"/>
  <text x="291" y="177" fill="#EC4899" font-family="sans-serif" font-size="10" font-weight="bold">⚡ Advanced Excel &amp; Automation</text>

  <text x="291" y="197" fill="#6e7681" font-family="sans-serif" font-size="8.5">Advanced Formula Techniques:</text>
  <rect x="291" y="202" width="240" height="14" rx="3" fill="#0d1117"/>
  <text x="298" y="212" fill="#f59e0b" font-family="monospace" font-size="8">=INDEX(MATCH(H2,A:A,0),MATCH(I2,B1:Z1,0))</text>

  <rect x="291" y="220" width="240" height="14" rx="3" fill="#0d1117"/>
  <text x="298" y="230" fill="#f59e0b" font-family="monospace" font-size="8">=ARRAYFORMULA(SUMPRODUCT(...))</text>

  <text x="291" y="248" fill="#6e7681" font-family="sans-serif" font-size="8.5">Macro VBA · Power Query · Pivot Tables</text>
  <text x="291" y="260" fill="#EC4899" font-family="sans-serif" font-size="8.5" font-weight="bold">IT Officer · Project Manager · Systems Analyst</text>
</svg>
