<svg viewBox="0 0 560 280" xmlns="http://www.w3.org/2000/svg">
  <defs>
    <linearGradient id="bg" x1="0%" y1="0%" x2="100%" y2="100%">
      <stop offset="0%" stop-color="#1a1000"/>
      <stop offset="100%" stop-color="#0d1117"/>
    </linearGradient>
    <radialGradient id="glow" cx="50%" cy="50%" r="55%">
      <stop offset="0%" stop-color="#F59E0B" stop-opacity="0.09"/>
      <stop offset="100%" stop-color="#F59E0B" stop-opacity="0"/>
    </radialGradient>
  </defs>
  <rect width="560" height="280" fill="url(#bg)"/>
  <rect width="560" height="280" fill="url(#glow)"/>

  <text x="280" y="24" fill="#F59E0B" font-family="sans-serif" font-size="10" text-anchor="middle" font-weight="bold" letter-spacing="2">DATA ANALYTICS WITH PYTHON</text>

  <!-- Jupyter notebook left panel -->
  <rect x="20" y="36" width="265" height="230" rx="8" fill="#161b22" stroke="#F59E0B" stroke-opacity="0.25" stroke-width="1.5"/>
  <!-- Notebook header -->
  <rect x="20" y="36" width="265" height="28" rx="8" fill="#1c2333"/>
  <rect x="20" y="52" width="265" height="12" fill="#1c2333"/>
  <text x="80" y="52" fill="#F59E0B" font-family="sans-serif" font-size="8.5" text-anchor="middle">📓 analysis.ipynb</text>

  <!-- Cell 1: Import -->
  <rect x="30" y="70" width="245" height="36" rx="4" fill="#0d1117" stroke="#30363d" stroke-width="1"/>
  <text x="36" y="82" fill="#6e7681" font-family="monospace" font-size="7.5">In [1]:</text>
  <text x="70" y="82" fill="#c792ea" font-family="monospace" font-size="8">import</text>
  <text x="102" y="82" fill="#f78c6c" font-family="monospace" font-size="8">pandas</text>
  <text x="142" y="82" fill="#c792ea" font-family="monospace" font-size="8">as</text>
  <text x="156" y="82" fill="#82aaff" font-family="monospace" font-size="8">pd</text>
  <text x="70" y="96" fill="#c792ea" font-family="monospace" font-size="8">import</text>
  <text x="102" y="96" fill="#f78c6c" font-family="monospace" font-size="8">matplotlib.pyplot</text>
  <text x="222" y="96" fill="#c792ea" font-family="monospace" font-size="8">as</text>
  <text x="237" y="96" fill="#82aaff" font-family="monospace" font-size="8">plt</text>

  <!-- Cell 2: Load data -->
  <rect x="30" y="112" width="245" height="24" rx="4" fill="#0d1117" stroke="#30363d" stroke-width="1"/>
  <text x="36" y="124" fill="#6e7681" font-family="monospace" font-size="7.5">In [2]:</text>
  <text x="70" y="124" fill="#82aaff" font-family="monospace" font-size="8">df = pd.read_csv(</text>
  <text x="195" y="124" fill="#f78c6c" font-family="monospace" font-size="8">'sales.csv'</text>
  <text x="246" y="124" fill="#82aaff" font-family="monospace" font-size="8">)</text>

  <!-- Cell 3: DataFrame output -->
  <rect x="30" y="142" width="245" height="56" rx="4" fill="#0a0f1a" stroke="#F59E0B" stroke-opacity="0.2" stroke-width="1"/>
  <text x="36" y="154" fill="#6e7681" font-family="monospace" font-size="7.5">Out [2]:</text>
  <!-- mini dataframe table -->
  <text x="70" y="154" fill="#8b949e" font-family="monospace" font-size="7.5">Date</text>
  <text x="128" y="154" fill="#8b949e" font-family="monospace" font-size="7.5">Sales</text>
  <text x="186" y="154" fill="#8b949e" font-family="monospace" font-size="7.5">Region</text>
  <line x1="68" y1="158" x2="268" y2="158" stroke="#30363d" stroke-width="0.5"/>
  <text x="70" y="168" fill="#cdd9e5" font-family="monospace" font-size="7.5">2026-01</text>
  <text x="128" y="168" fill="#10B981" font-family="monospace" font-size="7.5">45,200</text>
  <text x="186" y="168" fill="#cdd9e5" font-family="monospace" font-size="7.5">Nairobi</text>
  <text x="70" y="180" fill="#cdd9e5" font-family="monospace" font-size="7.5">2026-02</text>
  <text x="128" y="180" fill="#10B981" font-family="monospace" font-size="7.5">52,800</text>
  <text x="186" y="180" fill="#cdd9e5" font-family="monospace" font-size="7.5">Kisumu</text>
  <text x="70" y="192" fill="#6e7681" font-family="monospace" font-size="7.5">... 1,200 rows</text>

  <!-- Cell 4: Visualization code -->
  <rect x="30" y="204" width="245" height="36" rx="4" fill="#0d1117" stroke="#30363d" stroke-width="1"/>
  <text x="36" y="216" fill="#6e7681" font-family="monospace" font-size="7.5">In [5]:</text>
  <text x="70" y="216" fill="#82aaff" font-family="monospace" font-size="8">df.groupby(</text>
  <text x="150" y="216" fill="#f78c6c" font-family="monospace" font-size="8">'Region'</text>
  <text x="200" y="216" fill="#82aaff" font-family="monospace" font-size="8">)</text>
  <text x="70" y="228" fill="#10B981" font-family="monospace" font-size="8">  [</text>
  <text x="84" y="228" fill="#f78c6c" font-family="monospace" font-size="8">'Sales'</text>
  <text x="120" y="228" fill="#10B981" font-family="monospace" font-size="8">].sum().plot.bar()</text>
  <text x="70" y="240" fill="#F59E0B" font-family="monospace" font-size="8">plt.show()</text>

  <!-- Chart panel right -->
  <rect x="301" y="36" width="241" height="230" rx="8" fill="#161b22" stroke="#30363d" stroke-width="1"/>
  <text x="318" y="58" fill="#F59E0B" font-family="sans-serif" font-size="9" font-weight="bold">SALES BY REGION — 2026</text>

  <!-- Bar chart visualization -->
  <rect x="315" y="68" width="212" height="140" rx="4" fill="#0d1117"/>
  <!-- Y axis -->
  <line x1="338" y1="70" x2="338" y2="200" stroke="#30363d" stroke-width="1"/>
  <text x="335" y="78" fill="#6e7681" font-family="monospace" font-size="6.5" text-anchor="end">60k</text>
  <text x="335" y="110" fill="#6e7681" font-family="monospace" font-size="6.5" text-anchor="end">40k</text>
  <text x="335" y="142" fill="#6e7681" font-family="monospace" font-size="6.5" text-anchor="end">20k</text>
  <text x="335" y="174" fill="#6e7681" font-family="monospace" font-size="6.5" text-anchor="end">0</text>

  <!-- Bars -->
  <rect x="345" y="104" width="30" height="92" rx="2" fill="#F59E0B" fill-opacity="0.75"/>
  <text x="360" y="100" fill="#F59E0B" font-family="monospace" font-size="7" text-anchor="middle">45.2k</text>
  <text x="360" y="208" fill="#6e7681" font-family="monospace" font-size="7" text-anchor="middle">Nairobi</text>

  <rect x="385" y="88" width="30" height="108" rx="2" fill="#F59E0B"/>
  <text x="400" y="84" fill="#F59E0B" font-family="monospace" font-size="7" text-anchor="middle">52.8k</text>
  <text x="400" y="208" fill="#6e7681" font-family="monospace" font-size="7" text-anchor="middle">Kisumu</text>

  <rect x="425" y="118" width="30" height="78" rx="2" fill="#F59E0B" fill-opacity="0.65"/>
  <text x="440" y="114" fill="#F59E0B" font-family="monospace" font-size="7" text-anchor="middle">38.4k</text>
  <text x="440" y="208" fill="#6e7681" font-family="monospace" font-size="7" text-anchor="middle">Mombasa</text>

  <rect x="465" y="130" width="30" height="66" rx="2" fill="#F59E0B" fill-opacity="0.5"/>
  <text x="480" y="126" fill="#F59E0B" font-family="monospace" font-size="7" text-anchor="middle">31.5k</text>
  <text x="480" y="208" fill="#6e7681" font-family="monospace" font-size="7" text-anchor="middle">Eldoret</text>

  <line x1="338" y1="200" x2="510" y2="200" stroke="#30363d" stroke-width="1"/>

  <!-- Stats summary -->
  <rect x="315" y="218" width="212" height="40" rx="4" fill="#0d1117"/>
  <text x="325" y="234" fill="#8b949e" font-family="monospace" font-size="8" font-weight="bold">SUMMARY STATISTICS</text>
  <text x="325" y="250" fill="#10B981" font-family="monospace" font-size="8">Mean: 41.97k</text>
  <text x="400" y="250" fill="#F59E0B" font-family="monospace" font-size="8">Max: 52.8k</text>
  <text x="460" y="250" fill="#ef4444" font-family="monospace" font-size="8">Min: 31.5k</text>

  <text x="318" y="272" fill="#6e7681" font-family="sans-serif" font-size="8">Pandas · NumPy · Matplotlib · Seaborn · Plotly · Jupyter</text>
</svg>
