<svg viewBox="0 0 560 280" xmlns="http://www.w3.org/2000/svg">
  <defs>
    <linearGradient id="bg" x1="0%" y1="0%" x2="100%" y2="100%">
      <stop offset="0%" stop-color="#1a1000"/>
      <stop offset="100%" stop-color="#0d1117"/>
    </linearGradient>
    <radialGradient id="glow" cx="50%" cy="50%" r="55%">
      <stop offset="0%" stop-color="#F59E0B" stop-opacity="0.09"/>
      <stop offset="100%" stop-color="#F59E0B" stop-opacity="0"/>
    </radialGradient>
  </defs>
  <rect width="560" height="280" fill="url(#bg)"/>
  <rect width="560" height="280" fill="url(#glow)"/>

  <!-- Power BI Dashboard header -->
  <rect x="20" y="20" width="520" height="246" rx="10" fill="#161b22" stroke="#F59E0B" stroke-opacity="0.25" stroke-width="1.5"/>
  <!-- Top bar -->
  <rect x="20" y="20" width="520" height="32" rx="10" fill="#1c2333"/>
  <rect x="20" y="40" width="520" height="12" fill="#1c2333"/>
  <text x="40" y="40" fill="#F59E0B" font-family="sans-serif" font-size="11" font-weight="bold">⚡ Power BI</text>
  <text x="150" y="40" fill="#6e7681" font-family="sans-serif" font-size="8">Business Intelligence Dashboard</text>
  <text x="440" y="40" fill="#6e7681" font-family="sans-serif" font-size="8">Q1 2026 · Live data</text>

  <!-- KPI Cards row -->
  <rect x="32" y="58" width="110" height="54" rx="6" fill="#0d1117" stroke="#F59E0B" stroke-opacity="0.3" stroke-width="1.5"/>
  <text x="42" y="74" fill="#6e7681" font-family="sans-serif" font-size="7">TOTAL REVENUE</text>
  <text x="42" y="92" fill="#F59E0B" font-family="sans-serif" font-size="18" font-weight="bold">KES 6.6M</text>
  <text x="42" y="106" fill="#10B981" font-family="sans-serif" font-size="8">▲ 18% vs Q4</text>

  <rect x="152" y="58" width="110" height="54" rx="6" fill="#0d1117" stroke="#10B981" stroke-opacity="0.3" stroke-width="1"/>
  <text x="162" y="74" fill="#6e7681" font-family="sans-serif" font-size="7">CUSTOMERS</text>
  <text x="162" y="92" fill="#10B981" font-family="sans-serif" font-size="18" font-weight="bold">1,842</text>
  <text x="162" y="106" fill="#10B981" font-family="sans-serif" font-size="8">▲ 234 new</text>

  <rect x="272" y="58" width="110" height="54" rx="6" fill="#0d1117" stroke="#9100B0" stroke-opacity="0.3" stroke-width="1"/>
  <text x="282" y="74" fill="#6e7681" font-family="sans-serif" font-size="7">GROSS MARGIN</text>
  <text x="282" y="92" fill="#9100B0" font-family="sans-serif" font-size="18" font-weight="bold">62.4%</text>
  <text x="282" y="106" fill="#10B981" font-family="sans-serif" font-size="8">▲ 3.2pp</text>

  <rect x="392" y="58" width="118" height="54" rx="6" fill="#0d1117" stroke="#0EA5E9" stroke-opacity="0.3" stroke-width="1"/>
  <text x="402" y="74" fill="#6e7681" font-family="sans-serif" font-size="7">OUTSTANDING</text>
  <text x="402" y="92" fill="#0EA5E9" font-family="sans-serif" font-size="18" font-weight="bold">KES 840K</text>
  <text x="402" y="106" fill="#ef4444" font-family="sans-serif" font-size="8">▼ 12 invoices</text>

  <!-- Bar chart (bottom left) -->
  <rect x="32" y="122" width="248" height="134" rx="6" fill="#0d1117" stroke="#30363d" stroke-width="1"/>
  <text x="46" y="140" fill="#F59E0B" font-family="sans-serif" font-size="8.5" font-weight="bold">Revenue by Month</text>

  <!-- Chart bars -->
  <rect x="52" y="186" width="24" height="60" rx="2" fill="#F59E0B" fill-opacity="0.5"/>
  <rect x="86" y="172" width="24" height="74" rx="2" fill="#F59E0B" fill-opacity="0.65"/>
  <rect x="120" y="158" width="24" height="88" rx="2" fill="#F59E0B" fill-opacity="0.75"/>
  <rect x="154" y="146" width="24" height="100" rx="2" fill="#F59E0B" fill-opacity="0.85"/>
  <rect x="188" y="156" width="24" height="90" rx="2" fill="#F59E0B" fill-opacity="0.8"/>
  <rect x="222" y="138" width="24" height="108" rx="2" fill="#F59E0B"/>
  <!-- X axis -->
  <line x1="45" y1="246" x2="268" y2="246" stroke="#30363d" stroke-width="1"/>
  <text x="64" y="254" fill="#6e7681" font-family="monospace" font-size="6.5" text-anchor="middle">Jan</text>
  <text x="98" y="254" fill="#6e7681" font-family="monospace" font-size="6.5" text-anchor="middle">Feb</text>
  <text x="132" y="254" fill="#6e7681" font-family="monospace" font-size="6.5" text-anchor="middle">Mar</text>
  <text x="166" y="254" fill="#6e7681" font-family="monospace" font-size="6.5" text-anchor="middle">Apr</text>
  <text x="200" y="254" fill="#6e7681" font-family="monospace" font-size="6.5" text-anchor="middle">May</text>
  <text x="234" y="254" fill="#6e7681" font-family="monospace" font-size="6.5" text-anchor="middle">Jun</text>

  <!-- Donut chart (middle right) -->
  <rect x="292" y="122" width="110" height="134" rx="6" fill="#0d1117" stroke="#30363d" stroke-width="1"/>
  <text x="347" y="140" fill="#F59E0B" font-family="sans-serif" font-size="8.5" text-anchor="middle" font-weight="bold">By Region</text>
  <!-- Simple donut -->
  <circle cx="347" cy="188" r="38" fill="none" stroke="#0EA5E9" stroke-width="14" stroke-dasharray="80 160"/>
  <circle cx="347" cy="188" r="38" fill="none" stroke="#10B981" stroke-width="14" stroke-dasharray="56 160" stroke-dashoffset="-80"/>
  <circle cx="347" cy="188" r="38" fill="none" stroke="#F59E0B" stroke-width="14" stroke-dasharray="48 160" stroke-dashoffset="-136"/>
  <!-- Donut center -->
  <circle cx="347" cy="188" r="22" fill="#0d1117"/>
  <text x="347" y="185" fill="#e6edf3" font-family="sans-serif" font-size="10" text-anchor="middle" font-weight="bold">3</text>
  <text x="347" y="197" fill="#6e7681" font-family="sans-serif" font-size="7" text-anchor="middle">Regions</text>
  <!-- Legend -->
  <rect x="302" y="236" width="8" height="8" rx="2" fill="#0EA5E9"/>
  <text x="314" y="244" fill="#6e7681" font-family="sans-serif" font-size="7">Nairobi 50%</text>
  <rect x="356" y="236" width="8" height="8" rx="2" fill="#10B981"/>
  <text x="368" y="244" fill="#6e7681" font-family="sans-serif" font-size="7">Kisumu 35%</text>

  <!-- Line chart (far right) -->
  <rect x="412" y="122" width="118" height="134" rx="6" fill="#0d1117" stroke="#30363d" stroke-width="1"/>
  <text x="471" y="140" fill="#F59E0B" font-family="sans-serif" font-size="8.5" text-anchor="middle" font-weight="bold">Trend</text>
  <!-- Line chart path -->
  <polyline points="422,230 435,218 450,208 465,215 480,198 495,185 510,172 520,162"
            fill="none" stroke="#F59E0B" stroke-width="2"/>
  <!-- Area fill -->
  <polygon points="422,245 422,230 435,218 450,208 465,215 480,198 495,185 510,172 520,162 520,245"
           fill="#F59E0B" fill-opacity="0.08"/>
  <!-- Data points -->
  <circle cx="435" cy="218" r="3" fill="#F59E0B"/>
  <circle cx="450" cy="208" r="3" fill="#F59E0B"/>
  <circle cx="465" cy="215" r="3" fill="#F59E0B"/>
  <circle cx="480" cy="198" r="3" fill="#F59E0B"/>
  <circle cx="495" cy="185" r="3" fill="#F59E0B"/>
  <circle cx="510" cy="172" r="3" fill="#F59E0B"/>
  <circle cx="520" cy="162" r="3" fill="#10B981" stroke="#10B981" stroke-width="2"/>
  <text x="523" y="160" fill="#10B981" font-family="monospace" font-size="7">Peak</text>
  <line x1="422" y1="245" x2="522" y2="245" stroke="#30363d" stroke-width="1"/>
  <!-- DAX formula hint -->
  <text x="422" y="256" fill="#6e7681" font-family="monospace" font-size="6.5">DAX · Power Query</text>
</svg>
