<svg viewBox="0 0 560 280" xmlns="http://www.w3.org/2000/svg">
  <defs>
    <linearGradient id="bg" x1="0%" y1="0%" x2="100%" y2="100%">
      <stop offset="0%" stop-color="#0a0f1a"/>
      <stop offset="100%" stop-color="#0d1117"/>
    </linearGradient>
    <radialGradient id="glow1" cx="25%" cy="50%" r="45%">
      <stop offset="0%" stop-color="#10B981" stop-opacity="0.08"/>
      <stop offset="100%" stop-color="#10B981" stop-opacity="0"/>
    </radialGradient>
    <radialGradient id="glow2" cx="75%" cy="50%" r="45%">
      <stop offset="0%" stop-color="#ef4444" stop-opacity="0.07"/>
      <stop offset="100%" stop-color="#ef4444" stop-opacity="0"/>
    </radialGradient>
  </defs>
  <rect width="560" height="280" fill="url(#bg)"/>
  <rect width="560" height="280" fill="url(#glow1)"/>
  <rect width="560" height="280" fill="url(#glow2)"/>

  <!-- Terminal left -->
  <rect x="18" y="18" width="270" height="244" rx="10" fill="#0d1117" stroke="#10B981" stroke-opacity="0.3" stroke-width="1"/>
  <rect x="18" y="18" width="270" height="30" rx="10" fill="#161b22"/>
  <rect x="18" y="36" width="270" height="12" fill="#161b22"/>
  <circle cx="36" cy="33" r="5" fill="#ff5f57"/>
  <circle cx="54" cy="33" r="5" fill="#ffbd2e"/>
  <circle cx="72" cy="33" r="5" fill="#28c940"/>
  <text x="100" y="37" fill="#10B981" font-family="monospace" font-size="10">kali@digitika:~#</text>

  <text x="30" y="66" fill="#10B981" font-family="monospace" font-size="10">$ nmap -sV 192.168.1.0/24</text>
  <text x="30" y="82" fill="#3fb950" font-family="monospace" font-size="9">Host: 192.168.1.1 (Router)</text>
  <text x="30" y="96" fill="#3fb950" font-family="monospace" font-size="9">80/tcp  open  http</text>
  <text x="30" y="110" fill="#3fb950" font-family="monospace" font-size="9">443/tcp open  https</text>
  <text x="30" y="124" fill="#ef4444" font-family="monospace" font-size="9">22/tcp  open  ssh (EXPOSED)</text>

  <text x="30" y="144" fill="#10B981" font-family="monospace" font-size="10">$ wireshark -i eth0</text>
  <text x="30" y="160" fill="#6e7681" font-family="monospace" font-size="9">Capturing packets...</text>
  <text x="30" y="174" fill="#f59e0b" font-family="monospace" font-size="9">→ 192.168.1.5 → 8.8.8.8 DNS</text>
  <text x="30" y="188" fill="#f59e0b" font-family="monospace" font-size="9">→ 10.0.0.2 → 443 HTTPS OK</text>
  <text x="30" y="202" fill="#ef4444" font-family="monospace" font-size="9">→ SUSPICIOUS: port scan!</text>

  <text x="30" y="222" fill="#10B981" font-family="monospace" font-size="10">$ msfconsole</text>
  <text x="30" y="236" fill="#6e7681" font-family="monospace" font-size="9">msf6 &gt; use exploit/multi</text>
  <text x="30" y="250" fill="#c792ea" font-family="monospace" font-size="9">Ethical Hacking Lab ✓</text>

  <!-- Right panel: Shield + Network -->
  <rect x="306" y="18" width="236" height="244" rx="10" fill="#161b22" stroke="#30363d" stroke-width="1"/>
  <text x="424" y="42" fill="#8b949e" font-family="sans-serif" font-size="10" text-anchor="middle" font-weight="bold" letter-spacing="1">DEFENSE ARCHITECTURE</text>

  <!-- Shield -->
  <path d="M424 55 L450 68 L450 95 Q450 115 424 128 Q398 115 398 95 L398 68 Z"
        fill="#10B981" fill-opacity="0.1" stroke="#10B981" stroke-opacity="0.5" stroke-width="2"/>
  <text x="424" y="100" fill="#10B981" font-family="sans-serif" font-size="22" text-anchor="middle">🔒</text>

  <!-- Security layers -->
  <rect x="316" y="138" width="216" height="22" rx="5" fill="#10B981" fill-opacity="0.1" stroke="#10B981" stroke-opacity="0.3" stroke-width="1"/>
  <text x="324" y="153" fill="#10B981" font-family="monospace" font-size="9" font-weight="bold">FIREWALL</text>
  <text x="510" y="153" fill="#3fb950" font-family="monospace" font-size="9" text-anchor="end">✓ Active</text>

  <rect x="316" y="166" width="216" height="22" rx="5" fill="#38bdf8" fill-opacity="0.08" stroke="#38bdf8" stroke-opacity="0.25" stroke-width="1"/>
  <text x="324" y="181" fill="#38bdf8" font-family="monospace" font-size="9" font-weight="bold">IDS/IPS</text>
  <text x="510" y="181" fill="#3fb950" font-family="monospace" font-size="9" text-anchor="end">✓ Active</text>

  <rect x="316" y="194" width="216" height="22" rx="5" fill="#f59e0b" fill-opacity="0.08" stroke="#f59e0b" stroke-opacity="0.25" stroke-width="1"/>
  <text x="324" y="209" fill="#f59e0b" font-family="monospace" font-size="9" font-weight="bold">VPN TUNNEL</text>
  <text x="510" y="209" fill="#3fb950" font-family="monospace" font-size="9" text-anchor="end">✓ Active</text>

  <rect x="316" y="222" width="216" height="22" rx="5" fill="#8b5cf6" fill-opacity="0.08" stroke="#8b5cf6" stroke-opacity="0.25" stroke-width="1"/>
  <text x="324" y="237" fill="#8b5cf6" font-family="monospace" font-size="9" font-weight="bold">AES-256 ENCRYPTION</text>
  <text x="510" y="237" fill="#3fb950" font-family="monospace" font-size="9" text-anchor="end">✓ On</text>

  <text x="316" y="256" fill="#6e7681" font-family="sans-serif" font-size="8.5">Kali Linux · OWASP · Metasploit · Wireshark</text>
</svg>
