<svg viewBox="0 0 560 280" xmlns="http://www.w3.org/2000/svg">
  <defs>
    <linearGradient id="bg" x1="0%" y1="0%" x2="100%" y2="100%">
      <stop offset="0%" stop-color="#1a0818"/>
      <stop offset="100%" stop-color="#0d1117"/>
    </linearGradient>
    <radialGradient id="glow" cx="40%" cy="40%" r="55%">
      <stop offset="0%" stop-color="#EC4899" stop-opacity="0.1"/>
      <stop offset="100%" stop-color="#EC4899" stop-opacity="0"/>
    </radialGradient>
  </defs>
  <rect width="560" height="280" fill="url(#bg)"/>
  <rect width="560" height="280" fill="url(#glow)"/>

  <text x="280" y="24" fill="#EC4899" font-family="sans-serif" font-size="10" text-anchor="middle" font-weight="bold" letter-spacing="2">ICDL LEVEL 1 — COMPUTER &amp; ONLINE ESSENTIALS</text>

  <!-- Desktop computer mockup -->
  <rect x="30" y="38" width="220" height="150" rx="8" fill="#161b22" stroke="#EC4899" stroke-opacity="0.3" stroke-width="1.5"/>
  <!-- Screen bezel -->
  <rect x="30" y="38" width="220" height="22" rx="8" fill="#1c2333"/>
  <rect x="30" y="48" width="220" height="12" fill="#1c2333"/>
  <circle cx="48" cy="49" r="4" fill="#ff5f57"/>
  <circle cx="62" cy="49" r="4" fill="#ffbd2e"/>
  <circle cx="76" cy="49" r="4" fill="#28c940"/>
  <text x="100" y="53" fill="#6e7681" font-family="monospace" font-size="8">File Explorer</text>

  <!-- File explorer content -->
  <rect x="30" y="60" width="55" height="128" fill="#0d1117"/>
  <!-- Sidebar items -->
  <text x="36" y="78" fill="#EC4899" font-family="sans-serif" font-size="8.5">📁 Desktop</text>
  <text x="36" y="96" fill="#6e7681" font-family="sans-serif" font-size="8.5">📁 Documents</text>
  <text x="36" y="114" fill="#6e7681" font-family="sans-serif" font-size="8.5">📁 Downloads</text>
  <text x="36" y="132" fill="#6e7681" font-family="sans-serif" font-size="8.5">🖼 Pictures</text>
  <text x="36" y="150" fill="#6e7681" font-family="sans-serif" font-size="8.5">🎵 Music</text>
  <text x="36" y="168" fill="#6e7681" font-family="sans-serif" font-size="8.5">🗑 Recycle</text>

  <!-- File grid -->
  <rect x="85" y="60" width="165" height="128" fill="#161b22"/>
  <!-- File icons -->
  <rect x="93" y="68" width="36" height="36" rx="4" fill="#0d1117" stroke="#EC4899" stroke-opacity="0.3" stroke-width="1"/>
  <text x="111" y="88" fill="#38bdf8" font-family="sans-serif" font-size="18" text-anchor="middle">📄</text>
  <text x="111" y="102" fill="#6e7681" font-family="sans-serif" font-size="7" text-anchor="middle">Resume.docx</text>

  <rect x="137" y="68" width="36" height="36" rx="4" fill="#0d1117" stroke="#EC4899" stroke-opacity="0.3" stroke-width="1"/>
  <text x="155" y="88" fill="#10B981" font-family="sans-serif" font-size="18" text-anchor="middle">📊</text>
  <text x="155" y="102" fill="#6e7681" font-family="sans-serif" font-size="7" text-anchor="middle">Budget.xlsx</text>

  <rect x="181" y="68" width="36" height="36" rx="4" fill="#0d1117" stroke="#EC4899" stroke-opacity="0.3" stroke-width="1"/>
  <text x="199" y="88" fill="#f59e0b" font-family="sans-serif" font-size="18" text-anchor="middle">📋</text>
  <text x="199" y="102" fill="#6e7681" font-family="sans-serif" font-size="7" text-anchor="middle">Report.pptx</text>

  <rect x="225" y="68" width="36" height="36" rx="4" fill="#0d1117" stroke="#EC4899" stroke-opacity="0.3" stroke-width="1"/>
  <text x="243" y="88" fill="#8b5cf6" font-family="sans-serif" font-size="18" text-anchor="middle">📁</text>
  <text x="243" y="102" fill="#6e7681" font-family="sans-serif" font-size="7" text-anchor="middle">Projects/</text>

  <!-- Status bar at bottom -->
  <rect x="85" y="172" width="165" height="16" fill="#0d1117"/>
  <text x="93" y="183" fill="#6e7681" font-family="monospace" font-size="7.5">4 items · 2.4 MB · C:\Users\Student\Documents</text>

  <!-- Monitor stand -->
  <rect x="122" y="188" width="36" height="10" rx="2" fill="#1c2333"/>
  <rect x="105" y="196" width="70" height="6" rx="3" fill="#1c2333"/>

  <!-- Keyboard -->
  <rect x="40" y="210" width="200" height="30" rx="5" fill="#1c2333" stroke="#30363d" stroke-width="1"/>
  <!-- Key rows -->
  <rect x="50" y="215" width="180" height="8" rx="2" fill="#0d1117"/>
  <rect x="50" y="226" width="180" height="8" rx="2" fill="#0d1117"/>
  <!-- Key highlights -->
  <rect x="54" y="217" width="8" height="4" rx="1" fill="#30363d"/>
  <rect x="65" y="217" width="8" height="4" rx="1" fill="#30363d"/>
  <rect x="76" y="217" width="8" height="4" rx="1" fill="#30363d"/>
  <rect x="87" y="217" width="8" height="4" rx="1" fill="#30363d"/>
  <rect x="98" y="217" width="8" height="4" rx="1" fill="#30363d"/>
  <rect x="109" y="217" width="8" height="4" rx="1" fill="#30363d"/>

  <!-- Mouse -->
  <rect x="250" y="213" width="30" height="42" rx="15" fill="#1c2333" stroke="#30363d" stroke-width="1"/>
  <line x1="265" y1="213" x2="265" y2="234" stroke="#30363d" stroke-width="1"/>
  <rect x="258" y="220" width="6" height="8" rx="3" fill="#6e7681" opacity="0.4"/>

  <!-- Right: Internet & Email -->
  <rect x="296" y="38" width="246" height="112" rx="8" fill="#161b22" stroke="#30363d" stroke-width="1"/>
  <text x="308" y="60" fill="#EC4899" font-family="sans-serif" font-size="10" font-weight="bold">🌐 Internet Safety</text>

  <!-- Browser URL with lock -->
  <rect x="308" y="66" width="222" height="22" rx="4" fill="#0d1117" stroke="#10B981" stroke-opacity="0.4" stroke-width="1"/>
  <text x="318" y="81" fill="#10B981" font-family="monospace" font-size="9">🔒 https://icdl.org — Secure</text>

  <!-- Safety tips -->
  <text x="308" y="104" fill="#3fb950" font-family="sans-serif" font-size="9">✓ Never share passwords</text>
  <text x="308" y="118" fill="#3fb950" font-family="sans-serif" font-size="9">✓ Check for https:// always</text>
  <text x="308" y="132" fill="#3fb950" font-family="sans-serif" font-size="9">✓ Log out on shared computers</text>
  <text x="308" y="146" fill="#ef4444" font-family="sans-serif" font-size="9">✗ Beware phishing emails</text>

  <!-- Email mockup -->
  <rect x="296" y="158" width="246" height="100" rx="8" fill="#161b22" stroke="#30363d" stroke-width="1"/>
  <rect x="296" y="158" width="246" height="24" rx="8" fill="#1c2333"/>
  <rect x="296" y="170" width="246" height="12" fill="#1c2333"/>
  <text x="308" y="174" fill="#EC4899" font-family="sans-serif" font-size="9" font-weight="bold">✉ Professional Email</text>

  <text x="308" y="196" fill="#8b949e" font-family="monospace" font-size="8.5">From: student@digitika.ac.ke</text>
  <text x="308" y="210" fill="#8b949e" font-family="monospace" font-size="8.5">To: manager@company.co.ke</text>
  <text x="308" y="224" fill="#8b949e" font-family="monospace" font-size="8.5">Subject: Job Application — ICT Role</text>
  <text x="308" y="240" fill="#6e7681" font-family="monospace" font-size="8">Dear Hiring Manager, Please find...</text>
  <text x="460" y="250" fill="#10B981" font-family="sans-serif" font-size="8" text-anchor="end">Send →</text>

  <!-- Cert badge -->
  <rect x="296" y="262" width="246" height="14" rx="4" fill="#EC4899" fill-opacity="0.1" stroke="#EC4899" stroke-opacity="0.3" stroke-width="1"/>
  <text x="419" y="272" fill="#EC4899" font-family="sans-serif" font-size="8.5" text-anchor="middle" font-weight="bold">ICDL Globally Recognised · Kenyan Public Service Accepted</text>
</svg>
