<svg xmlns="http://www.w3.org/2000/svg" viewBox="0 0 400 280" fill="none">
  <rect width="400" height="280" rx="16" fill="#0c1445"/>
  <!-- Central router -->
  <rect x="165" y="115" width="70" height="50" rx="8" fill="#1e3a8a" stroke="#3b82f6" stroke-width="2"/>
  <rect x="178" y="128" width="44" height="6" rx="3" fill="#60a5fa"/>
  <rect x="178" y="140" width="30" height="6" rx="3" fill="#3b82f6"/>
  <circle cx="200" cy="156" r="4" fill="#22c55e"/>
  <!-- Connection lines -->
  <line x1="200" y1="115" x2="200" y2="70" stroke="#3b82f6" stroke-width="2" stroke-dasharray="6,3"/>
  <line x1="165" y1="140" x2="100" y2="100" stroke="#3b82f6" stroke-width="2" stroke-dasharray="6,3"/>
  <line x1="235" y1="140" x2="300" y2="100" stroke="#3b82f6" stroke-width="2" stroke-dasharray="6,3"/>
  <line x1="165" y1="155" x2="90" y2="190" stroke="#3b82f6" stroke-width="2" stroke-dasharray="6,3"/>
  <line x1="235" y1="155" x2="310" y2="190" stroke="#3b82f6" stroke-width="2" stroke-dasharray="6,3"/>
  <line x1="200" y1="165" x2="200" y2="210" stroke="#3b82f6" stroke-width="2" stroke-dasharray="6,3"/>
  <!-- Nodes -->
  <circle cx="200" cy="58" r="18" fill="#1e3a8a" stroke="#60a5fa" stroke-width="2"/>
  <text x="200" y="63" text-anchor="middle" font-family="monospace" font-size="11" fill="#60a5fa">PC</text>
  <circle cx="90" cy="92" r="18" fill="#1e3a8a" stroke="#60a5fa" stroke-width="2"/>
  <text x="90" y="97" text-anchor="middle" font-family="monospace" font-size="10" fill="#60a5fa">SW</text>
  <circle cx="310" cy="92" r="18" fill="#1e3a8a" stroke="#60a5fa" stroke-width="2"/>
  <text x="310" y="97" text-anchor="middle" font-family="monospace" font-size="10" fill="#60a5fa">AP</text>
  <circle cx="78" cy="195" r="18" fill="#1e3a8a" stroke="#22c55e" stroke-width="2"/>
  <text x="78" y="200" text-anchor="middle" font-family="monospace" font-size="10" fill="#22c55e">SRV</text>
  <circle cx="322" cy="195" r="18" fill="#1e3a8a" stroke="#22c55e" stroke-width="2"/>
  <text x="322" y="200" text-anchor="middle" font-family="monospace" font-size="10" fill="#22c55e">DB</text>
  <circle cx="200" cy="220" r="18" fill="#1e3a8a" stroke="#f59e0b" stroke-width="2"/>
  <text x="200" y="225" text-anchor="middle" font-family="monospace" font-size="10" fill="#f59e0b">FW</text>
  <!-- Label -->
  <text x="200" y="268" text-anchor="middle" font-family="monospace" font-size="13" fill="#475569">CCNA v7 · Cisco Networks</text>
</svg>
