<svg viewBox="0 0 560 280" xmlns="http://www.w3.org/2000/svg">
  <defs>
    <linearGradient id="bg" x1="0%" y1="0%" x2="100%" y2="100%">
      <stop offset="0%" stop-color="#1a0818"/>
      <stop offset="100%" stop-color="#0d1117"/>
    </linearGradient>
    <radialGradient id="glow" cx="50%" cy="40%" r="55%">
      <stop offset="0%" stop-color="#EC4899" stop-opacity="0.08"/>
      <stop offset="100%" stop-color="#EC4899" stop-opacity="0"/>
    </radialGradient>
  </defs>
  <rect width="560" height="280" fill="url(#bg)"/>
  <rect width="560" height="280" fill="url(#glow)"/>

  <text x="280" y="24" fill="#EC4899" font-family="sans-serif" font-size="10" text-anchor="middle" font-weight="bold" letter-spacing="2">ICDL LEVEL 2 — DOCUMENT PRODUCTION &amp; PRESENTATIONS</text>

  <!-- Word document mockup -->
  <rect x="20" y="36" width="250" height="220" rx="8" fill="#161b22" stroke="#EC4899" stroke-opacity="0.3" stroke-width="1.5"/>
  <!-- Document header -->
  <rect x="20" y="36" width="250" height="28" rx="8" fill="#1c2333"/>
  <rect x="20" y="52" width="250" height="12" fill="#1c2333"/>
  <!-- Ribbon toolbar items -->
  <text x="32" y="48" fill="#38bdf8" font-family="sans-serif" font-size="7.5" font-weight="bold">B</text>
  <text x="42" y="48" fill="#6e7681" font-family="sans-serif" font-size="7.5" font-style="italic">I</text>
  <text x="52" y="48" fill="#6e7681" font-family="sans-serif" font-size="7.5">U̲</text>
  <text x="70" y="48" fill="#6e7681" font-family="sans-serif" font-size="7.5">≡ ≡ ≡</text>
  <text x="110" y="48" fill="#6e7681" font-family="sans-serif" font-size="7.5">A· Size· Style</text>
  <text x="200" y="48" fill="#EC4899" font-family="sans-serif" font-size="7.5">document.docx</text>

  <!-- Document content area -->
  <rect x="30" y="64" width="230" height="180" fill="white" rx="2"/>
  <!-- Document text simulation -->
  <text x="45" y="84" fill="#1e3a5f" font-family="sans-serif" font-size="11" font-weight="bold">BUSINESS REPORT 2026</text>
  <line x1="45" y1="88" x2="245" y2="88" stroke="#EC4899" stroke-width="1.5"/>

  <text x="45" y="104" fill="#374151" font-family="sans-serif" font-size="7">Executive Summary</text>
  <rect x="45" y="107" width="180" height="5" rx="2" fill="#e5e7eb"/>
  <rect x="45" y="115" width="200" height="5" rx="2" fill="#e5e7eb"/>
  <rect x="45" y="123" width="155" height="5" rx="2" fill="#e5e7eb"/>

  <text x="45" y="140" fill="#374151" font-family="sans-serif" font-size="7">Quarterly Analysis</text>
  <rect x="45" y="143" width="195" height="5" rx="2" fill="#e5e7eb"/>
  <rect x="45" y="151" width="210" height="5" rx="2" fill="#e5e7eb"/>
  <rect x="45" y="159" width="170" height="5" rx="2" fill="#e5e7eb"/>

  <!-- Table in doc -->
  <rect x="45" y="172" width="200" height="48" fill="none" stroke="#d1d5db" stroke-width="1"/>
  <line x1="45" y1="184" x2="245" y2="184" stroke="#d1d5db" stroke-width="1"/>
  <line x1="45" y1="196" x2="245" y2="196" stroke="#d1d5db" stroke-width="1"/>
  <line x1="45" y1="208" x2="245" y2="208" stroke="#d1d5db" stroke-width="1"/>
  <line x1="125" y1="172" x2="125" y2="220" stroke="#d1d5db" stroke-width="1"/>
  <line x1="185" y1="172" x2="185" y2="220" stroke="#d1d5db" stroke-width="1"/>
  <rect x="45" y="172" width="200" height="12" fill="#EC4899" fill-opacity="0.1"/>
  <text x="82" y="181" fill="#EC4899" font-family="sans-serif" font-size="6.5" text-anchor="middle" font-weight="bold">Month</text>
  <text x="153" y="181" fill="#EC4899" font-family="sans-serif" font-size="6.5" text-anchor="middle" font-weight="bold">Sales</text>
  <text x="214" y="181" fill="#EC4899" font-family="sans-serif" font-size="6.5" text-anchor="middle" font-weight="bold">Growth</text>
  <text x="82" y="193" fill="#374151" font-family="sans-serif" font-size="6.5" text-anchor="middle">January</text>
  <text x="153" y="193" fill="#374151" font-family="sans-serif" font-size="6.5" text-anchor="middle">KES 1.2M</text>
  <text x="214" y="193" fill="#10B981" font-family="sans-serif" font-size="6.5" text-anchor="middle">+12%</text>
  <text x="82" y="205" fill="#374151" font-family="sans-serif" font-size="6.5" text-anchor="middle">February</text>
  <text x="153" y="205" fill="#374151" font-family="sans-serif" font-size="6.5" text-anchor="middle">KES 1.5M</text>
  <text x="214" y="205" fill="#10B981" font-family="sans-serif" font-size="6.5" text-anchor="middle">+25%</text>
  <text x="82" y="217" fill="#374151" font-family="sans-serif" font-size="6.5" text-anchor="middle">March</text>
  <text x="153" y="217" fill="#374151" font-family="sans-serif" font-size="6.5" text-anchor="middle">KES 1.8M</text>
  <text x="214" y="217" fill="#10B981" font-family="sans-serif" font-size="6.5" text-anchor="middle">+20%</text>

  <text x="45" y="234" fill="#6b7280" font-family="sans-serif" font-size="6">Prepared by: Digitika Academy Student · 2026</text>

  <!-- Presentation slide mockup -->
  <rect x="284" y="36" width="258" height="152" rx="8" fill="#161b22" stroke="#EC4899" stroke-opacity="0.3" stroke-width="1.5"/>
  <!-- Slide chrome -->
  <rect x="284" y="36" width="258" height="24" rx="8" fill="#1c2333"/>
  <rect x="284" y="48" width="258" height="12" fill="#1c2333"/>
  <text x="350" y="51" fill="#6e7681" font-family="sans-serif" font-size="8">Slide 3 of 12</text>
  <text x="462" y="51" fill="#EC4899" font-family="sans-serif" font-size="8">presentation.pptx</text>

  <!-- Slide content -->
  <rect x="290" y="60" width="246" height="120" rx="4" fill="#1a0f2e"/>
  <!-- Slide header -->
  <rect x="290" y="60" width="246" height="30" rx="4" fill="#EC4899" fill-opacity="0.15"/>
  <text x="413" y="79" fill="#EC4899" font-family="sans-serif" font-size="12" text-anchor="middle" font-weight="bold">Q1 Sales Results</text>
  <!-- Slide content -->
  <text x="302" y="102" fill="#e6edf3" font-family="sans-serif" font-size="9">● Revenue up 25% YoY</text>
  <text x="302" y="116" fill="#e6edf3" font-family="sans-serif" font-size="9">● 3 new enterprise clients</text>
  <text x="302" y="130" fill="#e6edf3" font-family="sans-serif" font-size="9">● Team grew to 42 staff</text>
  <!-- Mini chart in slide -->
  <rect x="415" y="94" width="110" height="80" rx="3" fill="#0d1117" fill-opacity="0.6"/>
  <rect x="425" y="124" width="10" height="44" rx="2" fill="#EC4899" fill-opacity="0.7"/>
  <rect x="440" y="114" width="10" height="54" rx="2" fill="#EC4899" fill-opacity="0.8"/>
  <rect x="455" y="104" width="10" height="64" rx="2" fill="#EC4899"/>
  <rect x="470" y="110" width="10" height="58" rx="2" fill="#EC4899" fill-opacity="0.9"/>
  <line x1="420" y1="168" x2="500" y2="168" stroke="#30363d" stroke-width="1"/>

  <!-- Slide thumbnails strip -->
  <rect x="284" y="196" width="258" height="60" rx="8" fill="#161b22" stroke="#30363d" stroke-width="1"/>
  <text x="295" y="210" fill="#8b949e" font-family="sans-serif" font-size="8" font-weight="bold">SLIDE PANEL</text>
  <rect x="295" y="216" width="44" height="32" rx="3" fill="#EC4899" fill-opacity="0.1" stroke="#EC4899" stroke-opacity="0.4" stroke-width="1"/>
  <text x="317" y="236" fill="#EC4899" font-family="sans-serif" font-size="7" text-anchor="middle">Title</text>
  <rect x="345" y="216" width="44" height="32" rx="3" fill="#0d1117" stroke="#30363d" stroke-width="1"/>
  <text x="367" y="236" fill="#6e7681" font-family="sans-serif" font-size="7" text-anchor="middle">Overview</text>
  <rect x="395" y="216" width="44" height="32" rx="3" fill="#0d1117" stroke="#30363d" stroke-width="1"/>
  <text x="417" y="236" fill="#6e7681" font-family="sans-serif" font-size="7" text-anchor="middle">Results</text>
  <rect x="445" y="216" width="44" height="32" rx="3" fill="#0d1117" stroke="#30363d" stroke-width="1"/>
  <text x="467" y="236" fill="#6e7681" font-family="sans-serif" font-size="7" text-anchor="middle">Action</text>
  <text x="502" y="236" fill="#6e7681" font-family="sans-serif" font-size="8">+8 →</text>

  <!-- Skills covered -->
  <rect x="284" y="260" width="258" height="18" rx="4" fill="#EC4899" fill-opacity="0.1" stroke="#EC4899" stroke-opacity="0.25" stroke-width="1"/>
  <text x="413" y="272" fill="#EC4899" font-family="sans-serif" font-size="8.5" text-anchor="middle">Word Processing · Styles · Mail Merge · PowerPoint · Slide Design</text>
</svg>
