<svg xmlns="http://www.w3.org/2000/svg" viewBox="0 0 400 280" fill="none">
  <rect width="400" height="280" rx="16" fill="#0a1628"/>
  <!-- Chart axes -->
  <line x1="60" y1="30" x2="60" y2="210" stroke="#1e40af" stroke-width="2"/>
  <line x1="60" y1="210" x2="360" y2="210" stroke="#1e40af" stroke-width="2"/>
  <!-- Bar chart bars -->
  <rect x="80" y="140" width="36" height="70" rx="4" fill="#1d4ed8" opacity="0.8"/>
  <rect x="130" y="110" width="36" height="100" rx="4" fill="#2563eb" opacity="0.8"/>
  <rect x="180" y="80" width="36" height="130" rx="4" fill="#3b82f6" opacity="0.8"/>
  <rect x="230" y="60" width="36" height="150" rx="4" fill="#60a5fa" opacity="0.9"/>
  <rect x="280" y="40" width="36" height="170" rx="4" fill="#93c5fd"/>
  <!-- Trend line -->
  <polyline points="98,145 148,115 198,85 248,65 298,45" stroke="#22c55e" stroke-width="2.5" fill="none" stroke-linecap="round" stroke-linejoin="round"/>
  <circle cx="98" cy="145" r="5" fill="#22c55e"/>
  <circle cx="148" cy="115" r="5" fill="#22c55e"/>
  <circle cx="198" cy="85" r="5" fill="#22c55e"/>
  <circle cx="248" cy="65" r="5" fill="#22c55e"/>
  <circle cx="298" cy="45" r="5" fill="#22c55e"/>
  <!-- Y-axis labels -->
  <text x="48" y="214" text-anchor="end" font-family="monospace" font-size="9" fill="#475569">0</text>
  <text x="48" y="164" text-anchor="end" font-family="monospace" font-size="9" fill="#475569">25</text>
  <text x="48" y="114" text-anchor="end" font-family="monospace" font-size="9" fill="#475569">50</text>
  <text x="48" y="64" text-anchor="end" font-family="monospace" font-size="9" fill="#475569">75</text>
  <!-- Legend -->
  <rect x="240" y="225" width="12" height="12" rx="2" fill="#3b82f6"/>
  <text x="258" y="236" font-family="monospace" font-size="10" fill="#64748b">Revenue</text>
  <line x1="310" y1="231" x2="326" y2="231" stroke="#22c55e" stroke-width="2"/>
  <circle cx="318" cy="231" r="3" fill="#22c55e"/>
  <text x="330" y="236" font-family="monospace" font-size="10" fill="#64748b">Trend</text>
  <!-- Label -->
  <text x="200" y="268" text-anchor="middle" font-family="monospace" font-size="13" fill="#1d4ed8">Analytics · SQL · Power BI</text>
</svg>
