<svg viewBox="0 0 560 280" xmlns="http://www.w3.org/2000/svg">
  <defs>
    <linearGradient id="bg" x1="0%" y1="0%" x2="100%" y2="100%">
      <stop offset="0%" stop-color="#0d0820"/>
      <stop offset="100%" stop-color="#0d1117"/>
    </linearGradient>
    <radialGradient id="glow" cx="50%" cy="50%" r="55%">
      <stop offset="0%" stop-color="#8b5cf6" stop-opacity="0.1"/>
      <stop offset="100%" stop-color="#8b5cf6" stop-opacity="0"/>
    </radialGradient>
  </defs>
  <rect width="560" height="280" fill="url(#bg)"/>
  <rect width="560" height="280" fill="url(#glow)"/>

  <text x="280" y="24" fill="#8b5cf6" font-family="sans-serif" font-size="10" text-anchor="middle" font-weight="bold" letter-spacing="2">GENERATIVE AI &amp; LLM ENGINEERING</text>

  <!-- RAG Pipeline visualization -->
  <text x="280" y="48" fill="#8b949e" font-family="sans-serif" font-size="9" text-anchor="middle" font-weight="bold" letter-spacing="1">RAG ARCHITECTURE PIPELINE</text>

  <!-- Step 1: Documents -->
  <rect x="20" y="58" width="80" height="70" rx="8" fill="#161b22" stroke="#8b5cf6" stroke-opacity="0.4" stroke-width="1.5"/>
  <text x="60" y="78" fill="#8b5cf6" font-family="sans-serif" font-size="16" text-anchor="middle">📄</text>
  <text x="60" y="96" fill="#e6edf3" font-family="sans-serif" font-size="9" text-anchor="middle" font-weight="bold">Documents</text>
  <text x="60" y="108" fill="#6e7681" font-family="sans-serif" font-size="7.5" text-anchor="middle">PDF · DOCX</text>
  <text x="60" y="120" fill="#6e7681" font-family="sans-serif" font-size="7.5" text-anchor="middle">Web · CSV</text>

  <line x1="100" y1="93" x2="118" y2="93" stroke="#8b5cf6" stroke-opacity="0.5" stroke-width="2"/>
  <polygon points="118,89 126,93 118,97" fill="#8b5cf6" fill-opacity="0.5"/>

  <!-- Step 2: Chunk + Embed -->
  <rect x="126" y="58" width="90" height="70" rx="8" fill="#161b22" stroke="#0EA5E9" stroke-opacity="0.4" stroke-width="1.5"/>
  <text x="171" y="78" fill="#0EA5E9" font-family="sans-serif" font-size="16" text-anchor="middle">⚡</text>
  <text x="171" y="96" fill="#e6edf3" font-family="sans-serif" font-size="9" text-anchor="middle" font-weight="bold">Embeddings</text>
  <text x="171" y="108" fill="#6e7681" font-family="sans-serif" font-size="7.5" text-anchor="middle">Chunk text</text>
  <text x="171" y="120" fill="#6e7681" font-family="sans-serif" font-size="7.5" text-anchor="middle">OpenAI ada</text>

  <line x1="216" y1="93" x2="234" y2="93" stroke="#0EA5E9" stroke-opacity="0.5" stroke-width="2"/>
  <polygon points="234,89 242,93 234,97" fill="#0EA5E9" fill-opacity="0.5"/>

  <!-- Step 3: Vector DB -->
  <rect x="242" y="58" width="90" height="70" rx="8" fill="#161b22" stroke="#10B981" stroke-opacity="0.4" stroke-width="1.5"/>
  <text x="287" y="78" fill="#10B981" font-family="sans-serif" font-size="16" text-anchor="middle">🗄</text>
  <text x="287" y="96" fill="#e6edf3" font-family="sans-serif" font-size="9" text-anchor="middle" font-weight="bold">Vector DB</text>
  <text x="287" y="108" fill="#6e7681" font-family="sans-serif" font-size="7.5" text-anchor="middle">Pinecone</text>
  <text x="287" y="120" fill="#6e7681" font-family="sans-serif" font-size="7.5" text-anchor="middle">pgvector</text>

  <line x1="332" y1="93" x2="350" y2="93" stroke="#10B981" stroke-opacity="0.5" stroke-width="2"/>
  <polygon points="350,89 358,93 350,97" fill="#10B981" fill-opacity="0.5"/>

  <!-- Step 4: LLM -->
  <rect x="358" y="58" width="90" height="70" rx="8" fill="#161b22" stroke="#8b5cf6" stroke-opacity="0.5" stroke-width="2"/>
  <text x="403" y="78" fill="#8b5cf6" font-family="sans-serif" font-size="16" text-anchor="middle">🧠</text>
  <text x="403" y="96" fill="#e6edf3" font-family="sans-serif" font-size="9" text-anchor="middle" font-weight="bold">LLM</text>
  <text x="403" y="108" fill="#6e7681" font-family="sans-serif" font-size="7.5" text-anchor="middle">GPT-4 · Claude</text>
  <text x="403" y="120" fill="#6e7681" font-family="sans-serif" font-size="7.5" text-anchor="middle">Llama · Mistral</text>

  <line x1="448" y1="93" x2="466" y2="93" stroke="#8b5cf6" stroke-opacity="0.5" stroke-width="2"/>
  <polygon points="466,89 474,93 466,97" fill="#8b5cf6" fill-opacity="0.5"/>

  <!-- Step 5: Response -->
  <rect x="474" y="58" width="66" height="70" rx="8" fill="#161b22" stroke="#f59e0b" stroke-opacity="0.4" stroke-width="1.5"/>
  <text x="507" y="78" fill="#f59e0b" font-family="sans-serif" font-size="16" text-anchor="middle">💬</text>
  <text x="507" y="96" fill="#e6edf3" font-family="sans-serif" font-size="9" text-anchor="middle" font-weight="bold">Answer</text>
  <text x="507" y="108" fill="#6e7681" font-family="sans-serif" font-size="7.5" text-anchor="middle">Grounded</text>
  <text x="507" y="120" fill="#6e7681" font-family="sans-serif" font-size="7.5" text-anchor="middle">response</text>

  <!-- Code panel -->
  <rect x="20" y="140" width="305" height="126" rx="8" fill="#161b22" stroke="#30363d" stroke-width="1"/>
  <rect x="20" y="140" width="305" height="26" rx="8" fill="#1c2333"/>
  <rect x="20" y="154" width="305" height="12" fill="#1c2333"/>
  <text x="140" y="157" fill="#8b5cf6" font-family="monospace" font-size="9" text-anchor="middle">rag_pipeline.py</text>

  <text x="32" y="180" fill="#c792ea" font-family="monospace" font-size="9">from</text>
  <text x="60" y="180" fill="#f78c6c" font-family="monospace" font-size="9">langchain</text>
  <text x="115" y="180" fill="#c792ea" font-family="monospace" font-size="9">import</text>
  <text x="155" y="180" fill="#f78c6c" font-family="monospace" font-size="9">ChatOpenAI</text>
  <text x="32" y="194" fill="#c792ea" font-family="monospace" font-size="9">from</text>
  <text x="60" y="194" fill="#f78c6c" font-family="monospace" font-size="9">pinecone</text>
  <text x="111" y="194" fill="#c792ea" font-family="monospace" font-size="9">import</text>
  <text x="151" y="194" fill="#f78c6c" font-family="monospace" font-size="9">Pinecone</text>

  <text x="32" y="212" fill="#82aaff" font-family="monospace" font-size="9">retriever = vectorstore</text>
  <text x="32" y="226" fill="#82aaff" font-family="monospace" font-size="9">  .as_retriever(k=</text>
  <text x="158" y="226" fill="#f97316" font-family="monospace" font-size="9">5</text>
  <text x="165" y="226" fill="#82aaff" font-family="monospace" font-size="9">)</text>

  <text x="32" y="244" fill="#82aaff" font-family="monospace" font-size="9">chain = RAGChain(llm, retriever)</text>
  <text x="32" y="258" fill="#10B981" font-family="monospace" font-size="9">answer = chain.run(user_query)</text>

  <!-- Skills panel -->
  <rect x="341" y="140" width="199" height="126" rx="8" fill="#161b22" stroke="#30363d" stroke-width="1"/>
  <text x="355" y="160" fill="#8b5cf6" font-family="sans-serif" font-size="9" font-weight="bold">SKILLS YOU BUILD</text>

  <rect x="353" y="168" width="178" height="18" rx="4" fill="#8b5cf6" fill-opacity="0.1" stroke="#8b5cf6" stroke-opacity="0.3" stroke-width="1"/>
  <text x="362" y="181" fill="#8b5cf6" font-family="sans-serif" font-size="8">RAG Pipeline Architecture</text>

  <rect x="353" y="190" width="178" height="18" rx="4" fill="#0EA5E9" fill-opacity="0.1" stroke="#0EA5E9" stroke-opacity="0.3" stroke-width="1"/>
  <text x="362" y="203" fill="#0EA5E9" font-family="sans-serif" font-size="8">Vector Database Management</text>

  <rect x="353" y="212" width="178" height="18" rx="4" fill="#10B981" fill-opacity="0.1" stroke="#10B981" stroke-opacity="0.3" stroke-width="1"/>
  <text x="362" y="225" fill="#10B981" font-family="sans-serif" font-size="8">LLM Fine-Tuning (LoRA)</text>

  <rect x="353" y="234" width="178" height="18" rx="4" fill="#f59e0b" fill-opacity="0.1" stroke="#f59e0b" stroke-opacity="0.3" stroke-width="1"/>
  <text x="362" y="247" fill="#f59e0b" font-family="sans-serif" font-size="8">Multi-Agent AI Systems</text>

  <text x="355" y="263" fill="#6e7681" font-family="sans-serif" font-size="8">FastAPI · Docker · Production Deploy</text>
</svg>
