<svg viewBox="0 0 560 280" xmlns="http://www.w3.org/2000/svg">
  <defs>
    <linearGradient id="bg" x1="0%" y1="0%" x2="100%" y2="100%">
      <stop offset="0%" stop-color="#071a10"/>
      <stop offset="100%" stop-color="#0d1117"/>
    </linearGradient>
    <radialGradient id="glow" cx="50%" cy="50%" r="60%">
      <stop offset="0%" stop-color="#10B981" stop-opacity="0.08"/>
      <stop offset="100%" stop-color="#10B981" stop-opacity="0"/>
    </radialGradient>
  </defs>
  <rect width="560" height="280" fill="url(#bg)"/>
  <rect width="560" height="280" fill="url(#glow)"/>

  <!-- Left: React Native code -->
  <rect x="20" y="20" width="220" height="240" rx="10" fill="#161b22" stroke="#10B981" stroke-opacity="0.2" stroke-width="1"/>
  <rect x="20" y="20" width="220" height="30" rx="10" fill="#1c2333"/>
  <rect x="20" y="38" width="220" height="12" fill="#1c2333"/>
  <circle cx="38" cy="35" r="4.5" fill="#ff5f57"/>
  <circle cx="54" cy="35" r="4.5" fill="#ffbd2e"/>
  <circle cx="70" cy="35" r="4.5" fill="#28c940"/>
  <text x="92" y="39" fill="#6e7681" font-family="monospace" font-size="9.5">App.tsx</text>

  <text x="32" y="68" fill="#c792ea" font-family="monospace" font-size="10">import</text>
  <text x="80" y="68" fill="#f78c6c" font-family="monospace" font-size="10">React</text>
  <text x="115" y="68" fill="#cdd9e5" font-family="monospace" font-size="10">from</text>
  <text x="146" y="68" fill="#f78c6c" font-family="monospace" font-size="10">'react'</text>

  <text x="32" y="86" fill="#c792ea" font-family="monospace" font-size="10">export</text>
  <text x="78" y="86" fill="#c792ea" font-family="monospace" font-size="10">default</text>
  <text x="124" y="86" fill="#c792ea" font-family="monospace" font-size="10">function</text>
  <text x="32" y="102" fill="#82aaff" font-family="monospace" font-size="10">App</text>
  <text x="55" y="102" fill="#cdd9e5" font-family="monospace" font-size="10">() {'{'}</text>

  <text x="32" y="120" fill="#cdd9e5" font-family="monospace" font-size="10">  return (</text>
  <text x="32" y="136" fill="#10B981" font-family="monospace" font-size="10">    &lt;View</text>
  <text x="88" y="136" fill="#c792ea" font-family="monospace" font-size="10">style</text>
  <text x="126" y="136" fill="#cdd9e5" font-family="monospace" font-size="10">=</text>
  <text x="133" y="136" fill="#f78c6c" font-family="monospace" font-size="10">{styles}</text>
  <text x="183" y="136" fill="#10B981" font-family="monospace" font-size="10">&gt;</text>
  <text x="32" y="152" fill="#10B981" font-family="monospace" font-size="10">      &lt;Text&gt;</text>
  <text x="113" y="152" fill="#f78c6c" font-family="monospace" font-size="10">Hello</text>
  <text x="148" y="152" fill="#10B981" font-family="monospace" font-size="10">&lt;/Text&gt;</text>
  <text x="32" y="168" fill="#10B981" font-family="monospace" font-size="10">      &lt;Button</text>
  <text x="32" y="184" fill="#10B981" font-family="monospace" font-size="10">        title=</text>
  <text x="108" y="184" fill="#f78c6c" font-family="monospace" font-size="10">"M-Pesa Pay"</text>
  <text x="32" y="200" fill="#10B981" font-family="monospace" font-size="10">      /&gt;</text>
  <text x="32" y="216" fill="#10B981" font-family="monospace" font-size="10">    &lt;/View&gt;</text>
  <text x="32" y="232" fill="#cdd9e5" font-family="monospace" font-size="10">  )</text>
  <text x="32" y="248" fill="#cdd9e5" font-family="monospace" font-size="10">{'}'}</text>

  <!-- Android phone mockup -->
  <rect x="268" y="15" width="90" height="158" rx="12" fill="#1c2333" stroke="#10B981" stroke-opacity="0.4" stroke-width="2"/>
  <rect x="274" y="28" width="78" height="130" rx="4" fill="#0d1117"/>
  <!-- status bar -->
  <rect x="274" y="28" width="78" height="14" rx="0" fill="#161b22"/>
  <text x="278" y="38" fill="#6e7681" font-family="sans-serif" font-size="6">9:41</text>
  <text x="340" y="38" fill="#10B981" font-family="sans-serif" font-size="6">●●●</text>
  <!-- app header -->
  <rect x="274" y="42" width="78" height="22" fill="#10B981" fill-opacity="0.85"/>
  <text x="313" y="57" fill="white" font-family="sans-serif" font-size="8" text-anchor="middle" font-weight="bold">Dashboard</text>
  <!-- content -->
  <rect x="278" y="68" width="70" height="20" rx="4" fill="#10B981" fill-opacity="0.15" stroke="#10B981" stroke-opacity="0.3" stroke-width="1"/>
  <text x="313" y="80" fill="#10B981" font-family="sans-serif" font-size="7" text-anchor="middle">KES 45,200</text>
  <rect x="278" y="92" width="30" height="16" rx="3" fill="#161b22" stroke="#30363d" stroke-width="1"/>
  <text x="293" y="103" fill="#8b949e" font-family="sans-serif" font-size="6" text-anchor="middle">Orders</text>
  <rect x="314" y="92" width="34" height="16" rx="3" fill="#161b22" stroke="#30363d" stroke-width="1"/>
  <text x="331" y="103" fill="#8b949e" font-family="sans-serif" font-size="6" text-anchor="middle">Profile</text>
  <!-- bottom nav -->
  <rect x="274" y="140" width="78" height="18" fill="#161b22"/>
  <text x="295" y="152" fill="#10B981" font-family="sans-serif" font-size="8">🏠</text>
  <text x="315" y="152" fill="#6e7681" font-family="sans-serif" font-size="8">📊</text>
  <text x="335" y="152" fill="#6e7681" font-family="sans-serif" font-size="8">👤</text>
  <!-- home button -->
  <rect x="298" y="178" width="34" height="6" rx="3" fill="#30363d"/>
  <!-- Android label -->
  <text x="313" y="195" fill="#10B981" font-family="sans-serif" font-size="9" text-anchor="middle" font-weight="bold">Android</text>

  <!-- iOS phone mockup -->
  <rect x="378" y="15" width="90" height="158" rx="16" fill="#1c2333" stroke="#38bdf8" stroke-opacity="0.4" stroke-width="2"/>
  <!-- notch -->
  <rect x="406" y="15" width="34" height="10" rx="5" fill="#0d1117"/>
  <rect x="384" y="28" width="78" height="130" rx="4" fill="#0d1117"/>
  <!-- status bar -->
  <rect x="384" y="28" width="78" height="14" fill="#161b22"/>
  <text x="388" y="38" fill="#6e7681" font-family="sans-serif" font-size="6">9:41</text>
  <!-- app header -->
  <rect x="384" y="42" width="78" height="22" fill="#38bdf8" fill-opacity="0.85"/>
  <text x="423" y="57" fill="white" font-family="sans-serif" font-size="8" text-anchor="middle" font-weight="bold">ShopApp</text>
  <!-- iOS content -->
  <rect x="388" y="68" width="70" height="30" rx="4" fill="#38bdf8" fill-opacity="0.1" stroke="#38bdf8" stroke-opacity="0.3" stroke-width="1"/>
  <text x="423" y="82" fill="#38bdf8" font-family="sans-serif" font-size="7" text-anchor="middle" font-weight="bold">Featured</text>
  <text x="423" y="93" fill="#6e7681" font-family="sans-serif" font-size="6" text-anchor="middle">Product listing</text>
  <rect x="388" y="102" width="32" height="18" rx="4" fill="#10B981" fill-opacity="0.9"/>
  <text x="404" y="114" fill="white" font-family="sans-serif" font-size="6" text-anchor="middle">Buy Now</text>
  <rect x="426" y="102" width="32" height="18" rx="4" fill="#161b22" stroke="#30363d" stroke-width="1"/>
  <text x="442" y="114" fill="#8b949e" font-family="sans-serif" font-size="6" text-anchor="middle">Save</text>
  <rect x="384" y="140" width="78" height="18" fill="#161b22"/>
  <text x="402" y="152" fill="#38bdf8" font-family="sans-serif" font-size="8">⊞</text>
  <text x="418" y="152" fill="#6e7681" font-family="sans-serif" font-size="8">♡</text>
  <text x="434" y="152" fill="#6e7681" font-family="sans-serif" font-size="8">◎</text>
  <text x="423" y="195" fill="#38bdf8" font-family="sans-serif" font-size="9" text-anchor="middle" font-weight="bold">iOS</text>

  <!-- Tech stack labels -->
  <rect x="268" y="188" width="200" height="26" rx="6" fill="#161b22" stroke="#30363d" stroke-width="1"/>
  <text x="278" y="200" fill="#c792ea" font-family="monospace" font-size="9" font-weight="bold">React Native</text>
  <text x="278" y="212" fill="#6e7681" font-family="monospace" font-size="8">Flutter · Firebase · Expo · App Store</text>

  <!-- Deploy badges -->
  <rect x="268" y="222" width="94" height="22" rx="5" fill="#10B981" fill-opacity="0.12" stroke="#10B981" stroke-opacity="0.3" stroke-width="1"/>
  <text x="315" y="236" fill="#10B981" font-family="sans-serif" font-size="9" text-anchor="middle" font-weight="bold">Google Play</text>

  <rect x="370" y="222" width="98" height="22" rx="5" fill="#38bdf8" fill-opacity="0.12" stroke="#38bdf8" stroke-opacity="0.3" stroke-width="1"/>
  <text x="419" y="236" fill="#38bdf8" font-family="sans-serif" font-size="9" text-anchor="middle" font-weight="bold">App Store</text>

  <text x="268" y="265" fill="#6e7681" font-family="sans-serif" font-size="9">Cross-platform · Push Notifications · Camera · Maps</text>
</svg>
