<svg viewBox="0 0 560 280" xmlns="http://www.w3.org/2000/svg">
  <defs>
    <linearGradient id="bg" x1="0%" y1="0%" x2="100%" y2="100%">
      <stop offset="0%" stop-color="#071220"/>
      <stop offset="100%" stop-color="#0d1117"/>
    </linearGradient>
    <radialGradient id="glow" cx="50%" cy="40%" r="55%">
      <stop offset="0%" stop-color="#0EA5E9" stop-opacity="0.12"/>
      <stop offset="100%" stop-color="#0EA5E9" stop-opacity="0"/>
    </radialGradient>
    <linearGradient id="gold" x1="0%" y1="0%" x2="100%" y2="100%">
      <stop offset="0%" stop-color="#f59e0b"/>
      <stop offset="100%" stop-color="#fcd34d"/>
    </linearGradient>
  </defs>
  <rect width="560" height="280" fill="url(#bg)"/>
  <rect width="560" height="280" fill="url(#glow)"/>

  <text x="280" y="24" fill="#0EA5E9" font-family="sans-serif" font-size="10" text-anchor="middle" font-weight="bold" letter-spacing="2">CCNA 200-301 EXAM PREP — 4 WEEKS INTENSIVE</text>

  <!-- Certificate badge / trophy area -->
  <!-- Outer ring -->
  <circle cx="140" cy="155" r="88" fill="none" stroke="#f59e0b" stroke-opacity="0.15" stroke-width="2"/>
  <circle cx="140" cy="155" r="74" fill="none" stroke="#f59e0b" stroke-opacity="0.25" stroke-width="1.5"/>
  <circle cx="140" cy="155" r="60" fill="#161b22" stroke="url(#gold)" stroke-width="3"/>

  <!-- Badge content -->
  <text x="140" y="135" fill="#f59e0b" font-family="sans-serif" font-size="26" text-anchor="middle">🏅</text>
  <text x="140" y="158" fill="#0EA5E9" font-family="sans-serif" font-size="12" text-anchor="middle" font-weight="bold">CCNA</text>
  <text x="140" y="174" fill="#e6edf3" font-family="sans-serif" font-size="9" text-anchor="middle">200-301</text>
  <text x="140" y="188" fill="#6e7681" font-family="sans-serif" font-size="7" text-anchor="middle">Cisco Certified</text>

  <!-- Score gauge -->
  <rect x="246" y="36" width="296" height="110" rx="8" fill="#161b22" stroke="#0EA5E9" stroke-opacity="0.25" stroke-width="1"/>
  <text x="260" y="58" fill="#0EA5E9" font-family="sans-serif" font-size="9" font-weight="bold">EXAM READINESS TRACKER</text>

  <!-- Score bars -->
  <text x="260" y="78" fill="#8b949e" font-family="sans-serif" font-size="8">Network Fundamentals</text>
  <rect x="390" y="68" width="140" height="10" rx="5" fill="#30363d"/>
  <rect x="390" y="68" width="120" height="10" rx="5" fill="#10B981"/>
  <text x="535" y="77" fill="#10B981" font-family="monospace" font-size="8">85%</text>

  <text x="260" y="96" fill="#8b949e" font-family="sans-serif" font-size="8">IP Connectivity</text>
  <rect x="390" y="86" width="140" height="10" rx="5" fill="#30363d"/>
  <rect x="390" y="86" width="115" height="10" rx="5" fill="#10B981"/>
  <text x="535" y="95" fill="#10B981" font-family="monospace" font-size="8">82%</text>

  <text x="260" y="114" fill="#8b949e" font-family="sans-serif" font-size="8">IP Services</text>
  <rect x="390" y="104" width="140" height="10" rx="5" fill="#30363d"/>
  <rect x="390" y="104" width="104" height="10" rx="5" fill="#f59e0b"/>
  <text x="535" y="113" fill="#f59e0b" font-family="monospace" font-size="8">74%</text>

  <text x="260" y="132" fill="#8b949e" font-family="sans-serif" font-size="8">Security Fundamentals</text>
  <rect x="390" y="122" width="140" height="10" rx="5" fill="#30363d"/>
  <rect x="390" y="122" width="92" height="10" rx="5" fill="#f59e0b"/>
  <text x="535" y="131" fill="#f59e0b" font-family="monospace" font-size="8">66%</text>

  <!-- Mock exam results -->
  <rect x="246" y="154" width="296" height="106" rx="8" fill="#161b22" stroke="#30363d" stroke-width="1"/>
  <text x="260" y="174" fill="#0EA5E9" font-family="sans-serif" font-size="9" font-weight="bold">MOCK EXAM RESULTS</text>

  <!-- Exam rows -->
  <text x="260" y="192" fill="#8b949e" font-family="monospace" font-size="8">Mock Exam 1</text>
  <text x="390" y="192" fill="#ef4444" font-family="monospace" font-size="8">68% — Below pass</text>
  <text x="260" y="208" fill="#8b949e" font-family="monospace" font-size="8">Mock Exam 2</text>
  <text x="390" y="208" fill="#f59e0b" font-family="monospace" font-size="8">74% — Getting there</text>
  <text x="260" y="224" fill="#8b949e" font-family="monospace" font-size="8">Mock Exam 3</text>
  <text x="390" y="224" fill="#10B981" font-family="monospace" font-size="8">82% — Pass threshold</text>
  <text x="260" y="240" fill="#8b949e" font-family="monospace" font-size="8">Mock Exam 4</text>
  <text x="390" y="240" fill="#10B981" font-family="monospace" font-size="8" font-weight="bold">91% — Exam ready! ✓</text>
  <text x="260" y="255" fill="#6e7681" font-family="sans-serif" font-size="8">Pass score: 825/1000 (82.5%)</text>

  <!-- Study checklist on left bottom -->
  <rect x="30" y="250" width="200" height="22" rx="5" fill="#0d1117" stroke="#0EA5E9" stroke-opacity="0.2" stroke-width="1"/>
  <text x="40" y="264" fill="#10B981" font-family="monospace" font-size="8">✓ Labs ✓ Timed tests ✓ Mentor sessions</text>
</svg>
