<svg viewBox="0 0 560 280" xmlns="http://www.w3.org/2000/svg">
  <defs>
    <linearGradient id="bg" x1="0%" y1="0%" x2="100%" y2="100%">
      <stop offset="0%" stop-color="#1a0818"/>
      <stop offset="100%" stop-color="#0d1117"/>
    </linearGradient>
    <radialGradient id="glow" cx="50%" cy="50%" r="55%">
      <stop offset="0%" stop-color="#EC4899" stop-opacity="0.08"/>
      <stop offset="100%" stop-color="#EC4899" stop-opacity="0"/>
    </radialGradient>
  </defs>
  <rect width="560" height="280" fill="url(#bg)"/>
  <rect width="560" height="280" fill="url(#glow)"/>

  <text x="280" y="24" fill="#EC4899" font-family="sans-serif" font-size="10" text-anchor="middle" font-weight="bold" letter-spacing="2">ICDL LEVEL 3 — SPREADSHEETS &amp; DATA MANAGEMENT</text>

  <!-- Excel spreadsheet mockup -->
  <rect x="20" y="36" width="320" height="220" rx="8" fill="#161b22" stroke="#EC4899" stroke-opacity="0.3" stroke-width="1.5"/>
  <!-- Excel toolbar -->
  <rect x="20" y="36" width="320" height="26" rx="8" fill="#1c2333"/>
  <rect x="20" y="50" width="320" height="12" fill="#1c2333"/>
  <text x="32" y="50" fill="#10B981" font-family="sans-serif" font-size="8.5" font-weight="bold">fx</text>
  <rect x="50" y="42" width="260" height="14" rx="3" fill="#0d1117" stroke="#30363d" stroke-width="1"/>
  <text x="56" y="52" fill="#f59e0b" font-family="monospace" font-size="8.5">=SUMIF(B2:B12,&quot;Q1&quot;,C2:C12)</text>

  <!-- Column headers -->
  <rect x="20" y="62" width="320" height="16" fill="#1c2333"/>
  <line x1="20" y1="62" x2="340" y2="62" stroke="#30363d" stroke-width="0.5"/>
  <text x="38" y="74" fill="#8b949e" font-family="monospace" font-size="8.5" text-anchor="middle">A</text>
  <text x="98" y="74" fill="#8b949e" font-family="monospace" font-size="8.5" text-anchor="middle">B</text>
  <text x="158" y="74" fill="#8b949e" font-family="monospace" font-size="8.5" text-anchor="middle">C</text>
  <text x="228" y="74" fill="#8b949e" font-family="monospace" font-size="8.5" text-anchor="middle">D</text>
  <text x="298" y="74" fill="#8b949e" font-family="monospace" font-size="8.5" text-anchor="middle">E</text>

  <!-- Row headers + data -->
  <!-- Header row -->
  <rect x="20" y="78" width="320" height="14" fill="#EC4899" fill-opacity="0.1"/>
  <text x="38" y="89" fill="#EC4899" font-family="monospace" font-size="8" text-anchor="middle">1</text>
  <text x="98" y="89" fill="#e6edf3" font-family="monospace" font-size="8" text-anchor="middle" font-weight="bold">Quarter</text>
  <text x="158" y="89" fill="#e6edf3" font-family="monospace" font-size="8" text-anchor="middle" font-weight="bold">Revenue</text>
  <text x="228" y="89" fill="#e6edf3" font-family="monospace" font-size="8" text-anchor="middle" font-weight="bold">Expenses</text>
  <text x="298" y="89" fill="#e6edf3" font-family="monospace" font-size="8" text-anchor="middle" font-weight="bold">Profit</text>

  <!-- Data rows -->
  <text x="38" y="103" fill="#6e7681" font-family="monospace" font-size="8" text-anchor="middle">2</text>
  <text x="98" y="103" fill="#cdd9e5" font-family="monospace" font-size="8" text-anchor="middle">Q1</text>
  <text x="158" y="103" fill="#cdd9e5" font-family="monospace" font-size="8" text-anchor="middle">1,200,000</text>
  <text x="228" y="103" fill="#cdd9e5" font-family="monospace" font-size="8" text-anchor="middle">850,000</text>
  <text x="298" y="103" fill="#10B981" font-family="monospace" font-size="8" text-anchor="middle">350,000</text>

  <text x="38" y="117" fill="#6e7681" font-family="monospace" font-size="8" text-anchor="middle">3</text>
  <text x="98" y="117" fill="#cdd9e5" font-family="monospace" font-size="8" text-anchor="middle">Q2</text>
  <text x="158" y="117" fill="#cdd9e5" font-family="monospace" font-size="8" text-anchor="middle">1,500,000</text>
  <text x="228" y="117" fill="#cdd9e5" font-family="monospace" font-size="8" text-anchor="middle">920,000</text>
  <text x="298" y="117" fill="#10B981" font-family="monospace" font-size="8" text-anchor="middle">580,000</text>

  <text x="38" y="131" fill="#6e7681" font-family="monospace" font-size="8" text-anchor="middle">4</text>
  <text x="98" y="131" fill="#cdd9e5" font-family="monospace" font-size="8" text-anchor="middle">Q3</text>
  <text x="158" y="131" fill="#cdd9e5" font-family="monospace" font-size="8" text-anchor="middle">1,800,000</text>
  <text x="228" y="131" fill="#cdd9e5" font-family="monospace" font-size="8" text-anchor="middle">1,100,000</text>
  <text x="298" y="131" fill="#10B981" font-family="monospace" font-size="8" text-anchor="middle">700,000</text>

  <text x="38" y="145" fill="#6e7681" font-family="monospace" font-size="8" text-anchor="middle">5</text>
  <text x="98" y="145" fill="#cdd9e5" font-family="monospace" font-size="8" text-anchor="middle">Q4</text>
  <text x="158" y="145" fill="#cdd9e5" font-family="monospace" font-size="8" text-anchor="middle">2,100,000</text>
  <text x="228" y="145" fill="#cdd9e5" font-family="monospace" font-size="8" text-anchor="middle">1,300,000</text>
  <text x="298" y="145" fill="#10B981" font-family="monospace" font-size="8" text-anchor="middle">800,000</text>

  <!-- Total row highlighted -->
  <rect x="20" y="148" width="320" height="15" fill="#10B981" fill-opacity="0.08"/>
  <text x="38" y="159" fill="#6e7681" font-family="monospace" font-size="8" text-anchor="middle">6</text>
  <text x="98" y="159" fill="#EC4899" font-family="monospace" font-size="8" text-anchor="middle" font-weight="bold">TOTAL</text>
  <text x="158" y="159" fill="#EC4899" font-family="monospace" font-size="8" text-anchor="middle">6,600,000</text>
  <text x="228" y="159" fill="#EC4899" font-family="monospace" font-size="8" text-anchor="middle">4,170,000</text>
  <text x="298" y="159" fill="#10B981" font-family="monospace" font-size="8" text-anchor="middle" font-weight="bold">2,430,000</text>

  <!-- Gridlines -->
  <line x1="20" y1="78" x2="340" y2="78" stroke="#30363d" stroke-width="0.5"/>
  <line x1="20" y1="92" x2="340" y2="92" stroke="#1e2533" stroke-width="0.5"/>
  <line x1="20" y1="106" x2="340" y2="106" stroke="#1e2533" stroke-width="0.5"/>
  <line x1="20" y1="120" x2="340" y2="120" stroke="#1e2533" stroke-width="0.5"/>
  <line x1="20" y1="134" x2="340" y2="134" stroke="#1e2533" stroke-width="0.5"/>
  <line x1="20" y1="148" x2="340" y2="148" stroke="#1e2533" stroke-width="0.5"/>
  <line x1="63" y1="62" x2="63" y2="255" stroke="#1e2533" stroke-width="0.5"/>
  <line x1="123" y1="62" x2="123" y2="255" stroke="#1e2533" stroke-width="0.5"/>
  <line x1="193" y1="62" x2="193" y2="255" stroke="#1e2533" stroke-width="0.5"/>
  <line x1="263" y1="62" x2="263" y2="255" stroke="#1e2533" stroke-width="0.5"/>

  <!-- Mini chart embedded -->
  <rect x="28" y="168" width="310" height="82" rx="5" fill="#0d1117" stroke="#30363d" stroke-width="1"/>
  <text x="35" y="182" fill="#EC4899" font-family="monospace" font-size="8.5" font-weight="bold">Pivot Chart — Annual Revenue</text>
  <!-- Bar chart -->
  <rect x="60" y="196" width="28" height="44" rx="2" fill="#EC4899" fill-opacity="0.5"/>
  <rect x="106" y="184" width="28" height="56" rx="2" fill="#EC4899" fill-opacity="0.7"/>
  <rect x="152" y="174" width="28" height="66" rx="2" fill="#EC4899" fill-opacity="0.85"/>
  <rect x="198" y="162" width="28" height="78" rx="2" fill="#EC4899"/>
  <line x1="50" y1="240" x2="280" y2="240" stroke="#30363d" stroke-width="1"/>
  <text x="74" y="250" fill="#6e7681" font-family="monospace" font-size="7" text-anchor="middle">Q1</text>
  <text x="120" y="250" fill="#6e7681" font-family="monospace" font-size="7" text-anchor="middle">Q2</text>
  <text x="166" y="250" fill="#6e7681" font-family="monospace" font-size="7" text-anchor="middle">Q3</text>
  <text x="212" y="250" fill="#6e7681" font-family="monospace" font-size="7" text-anchor="middle">Q4</text>
  <text x="252" y="220" fill="#10B981" font-family="monospace" font-size="9">↑ 75%</text>
  <text x="252" y="234" fill="#6e7681" font-family="monospace" font-size="7.5">YoY growth</text>

  <!-- Right panel: database -->
  <rect x="350" y="36" width="192" height="220" rx="8" fill="#161b22" stroke="#30363d" stroke-width="1"/>
  <text x="362" y="58" fill="#EC4899" font-family="sans-serif" font-size="10" font-weight="bold">📊 Database Basics</text>

  <!-- DB table representation -->
  <rect x="362" y="66" width="168" height="80" rx="5" fill="#0d1117" stroke="#EC4899" stroke-opacity="0.3" stroke-width="1"/>
  <text x="366" y="80" fill="#EC4899" font-family="monospace" font-size="8.5" font-weight="bold">Table: Customers</text>
  <line x1="362" y1="84" x2="530" y2="84" stroke="#30363d" stroke-width="1"/>
  <text x="370" y="96" fill="#8b949e" font-family="monospace" font-size="7.5">ID</text>
  <text x="392" y="96" fill="#8b949e" font-family="monospace" font-size="7.5">Name</text>
  <text x="450" y="96" fill="#8b949e" font-family="monospace" font-size="7.5">Region</text>
  <line x1="362" y1="100" x2="530" y2="100" stroke="#1e2533" stroke-width="0.5"/>
  <text x="370" y="112" fill="#cdd9e5" font-family="monospace" font-size="7.5">001</text>
  <text x="392" y="112" fill="#cdd9e5" font-family="monospace" font-size="7.5">Alice M.</text>
  <text x="450" y="112" fill="#cdd9e5" font-family="monospace" font-size="7.5">Nairobi</text>
  <text x="370" y="124" fill="#cdd9e5" font-family="monospace" font-size="7.5">002</text>
  <text x="392" y="124" fill="#cdd9e5" font-family="monospace" font-size="7.5">Bob K.</text>
  <text x="450" y="124" fill="#cdd9e5" font-family="monospace" font-size="7.5">Kisumu</text>
  <text x="370" y="136" fill="#cdd9e5" font-family="monospace" font-size="7.5">003</text>
  <text x="392" y="136" fill="#cdd9e5" font-family="monospace" font-size="7.5">Carol O.</text>
  <text x="450" y="136" fill="#cdd9e5" font-family="monospace" font-size="7.5">Mombasa</text>

  <!-- Formulas -->
  <text x="362" y="166" fill="#8b949e" font-family="sans-serif" font-size="9" font-weight="bold">KEY FORMULAS</text>
  <rect x="362" y="172" width="168" height="18" rx="4" fill="#0d1117"/>
  <text x="370" y="184" fill="#f59e0b" font-family="monospace" font-size="8">=VLOOKUP(A2,B:D,3,0)</text>
  <rect x="362" y="194" width="168" height="18" rx="4" fill="#0d1117"/>
  <text x="370" y="206" fill="#f59e0b" font-family="monospace" font-size="8">=SUMIF(B:B,"Q1",C:C)</text>
  <rect x="362" y="216" width="168" height="18" rx="4" fill="#0d1117"/>
  <text x="370" y="228" fill="#f59e0b" font-family="monospace" font-size="8">=COUNTIF(D:D,"&gt;10000")</text>
  <rect x="362" y="238" width="168" height="14" rx="4" fill="#0d1117"/>
  <text x="370" y="248" fill="#f59e0b" font-family="monospace" font-size="8">=AVERAGE(C2:C50)</text>

  <!-- Bottom cert badge -->
  <rect x="350" y="260" width="192" height="16" rx="4" fill="#EC4899" fill-opacity="0.1" stroke="#EC4899" stroke-opacity="0.3" stroke-width="1"/>
  <text x="446" y="271" fill="#EC4899" font-family="sans-serif" font-size="8.5" text-anchor="middle">Excel · Access · Data Validation</text>
</svg>
