<svg viewBox="0 0 400 280" xmlns="http://www.w3.org/2000/svg" fill="none">
  <rect width="400" height="280" rx="16" fill="#0f1117"/>
  <!-- POS Terminal -->
  <rect x="120" y="30" width="160" height="220" rx="14" fill="#141928" stroke="#1e2d4e" stroke-width="1.5"/>
  <rect x="130" y="40" width="140" height="90" rx="8" fill="#0a0d14"/>
  <!-- Screen content -->
  <text x="200" y="60" font-family="sans-serif" font-size="9" fill="#8892b0" text-anchor="middle">SALE #00124</text>
  <rect x="136" y="64" width="128" height="1" fill="#1e2d4e"/>
  <!-- Cart items -->
  <rect x="136" y="70" width="70" height="6" rx="2" fill="#1e2d4e"/>
  <text x="258" y="77" font-family="sans-serif" font-size="7" fill="#f0f0f0" text-anchor="end">KES 450</text>
  <rect x="136" y="82" width="55" height="6" rx="2" fill="#1e2d4e"/>
  <text x="258" y="89" font-family="sans-serif" font-size="7" fill="#f0f0f0" text-anchor="end">KES 1,200</text>
  <rect x="136" y="94" width="80" height="6" rx="2" fill="#1e2d4e"/>
  <text x="258" y="101" font-family="sans-serif" font-size="7" fill="#f0f0f0" text-anchor="end">KES 320</text>
  <rect x="136" y="110" width="128" height="1" fill="#1e2d4e"/>
  <text x="148" y="122" font-family="sans-serif" font-size="9" fill="#8892b0">TOTAL</text>
  <text x="258" y="122" font-family="sans-serif" font-size="11" font-weight="bold" fill="#4ade80" text-anchor="end">KES 1,970</text>
  <!-- Payment buttons -->
  <rect x="130" y="140" width="65" height="28" rx="6" fill="#15803d" opacity="0.8"/>
  <text x="163" y="158" font-family="sans-serif" font-size="8" fill="#fff" text-anchor="middle">M-PESA</text>
  <rect x="205" y="140" width="65" height="28" rx="6" fill="#1e2d4e"/>
  <text x="238" y="158" font-family="sans-serif" font-size="8" fill="#8892b0" text-anchor="middle">CARD</text>
  <!-- M-Pesa logo hint -->
  <circle cx="148" cy="154" r="5" fill="#4ade80" opacity="0.3"/>
  <!-- Numpad -->
  <rect x="134" y="178" width="28" height="18" rx="4" fill="#1a2038"/>
  <rect x="168" y="178" width="28" height="18" rx="4" fill="#1a2038"/>
  <rect x="202" y="178" width="28" height="18" rx="4" fill="#1a2038"/>
  <rect x="134" y="202" width="28" height="18" rx="4" fill="#1a2038"/>
  <rect x="168" y="202" width="28" height="18" rx="4" fill="#1a2038"/>
  <rect x="202" y="202" width="28" height="18" rx="4" fill="#1a2038"/>
  <rect x="134" y="226" width="62" height="18" rx="4" fill="#1a2038"/>
  <rect x="202" y="226" width="28" height="18" rx="4" fill="#9100B0" opacity="0.8"/>
  <text x="148" y="189" font-family="sans-serif" font-size="9" fill="#8892b0" text-anchor="middle">1</text>
  <text x="182" y="189" font-family="sans-serif" font-size="9" fill="#8892b0" text-anchor="middle">2</text>
  <text x="216" y="189" font-family="sans-serif" font-size="9" fill="#8892b0" text-anchor="middle">3</text>
  <text x="148" y="213" font-family="sans-serif" font-size="9" fill="#8892b0" text-anchor="middle">4</text>
  <text x="182" y="213" font-family="sans-serif" font-size="9" fill="#8892b0" text-anchor="middle">5</text>
  <text x="216" y="213" font-family="sans-serif" font-size="9" fill="#8892b0" text-anchor="middle">6</text>
  <text x="165" y="237" font-family="sans-serif" font-size="9" fill="#8892b0" text-anchor="middle">0</text>
  <text x="216" y="237" font-family="sans-serif" font-size="8" fill="#fff" text-anchor="middle">OK</text>
  <!-- Stats sidebar -->
  <rect x="20" y="50" width="90" height="180" rx="10" fill="#141928" stroke="#1e2d4e" stroke-width="1"/>
  <text x="65" y="70" font-family="sans-serif" font-size="8" fill="#8892b0" text-anchor="middle">Today's Sales</text>
  <text x="65" y="92" font-family="sans-serif" font-size="16" font-weight="bold" fill="#9100B0" text-anchor="middle">142</text>
  <text x="65" y="106" font-family="sans-serif" font-size="7" fill="#8892b0" text-anchor="middle">transactions</text>
  <rect x="30" y="114" width="70" height="1" fill="#1e2d4e"/>
  <text x="65" y="130" font-family="sans-serif" font-size="7" fill="#8892b0" text-anchor="middle">Revenue</text>
  <text x="65" y="148" font-family="sans-serif" font-size="12" font-weight="bold" fill="#4ade80" text-anchor="middle">84.2K</text>
  <rect x="30" y="158" width="70" height="1" fill="#1e2d4e"/>
  <!-- Mini bar chart -->
  <rect x="32" y="198" width="8" height="20" rx="2" fill="#9100B0" opacity="0.5"/>
  <rect x="44" y="188" width="8" height="30" rx="2" fill="#9100B0" opacity="0.7"/>
  <rect x="56" y="180" width="8" height="38" rx="2" fill="#9100B0" opacity="0.8"/>
  <rect x="68" y="175" width="8" height="43" rx="2" fill="#9100B0"/>
  <rect x="80" y="185" width="8" height="33" rx="2" fill="#4ade80"/>
  <rect x="30" y="218" width="70" height="1" fill="#1e2d4e"/>
  <text x="65" y="228" font-family="sans-serif" font-size="6" fill="#8892b0" text-anchor="middle">Last 5 days</text>
  <!-- Receipt side -->
  <rect x="290" y="50" width="90" height="110" rx="10" fill="#141928" stroke="#1e2d4e" stroke-width="1"/>
  <text x="335" y="68" font-family="sans-serif" font-size="7" fill="#8892b0" text-anchor="middle">Last Receipt</text>
  <rect x="300" y="72" width="70" height="1" fill="#1e2d4e"/>
  <text x="305" y="86" font-family="sans-serif" font-size="7" fill="#f0f0f0">Bread</text>
  <text x="370" y="86" font-family="sans-serif" font-size="7" fill="#f0f0f0" text-anchor="end">120</text>
  <text x="305" y="98" font-family="sans-serif" font-size="7" fill="#f0f0f0">Milk</text>
  <text x="370" y="98" font-family="sans-serif" font-size="7" fill="#f0f0f0" text-anchor="end">80</text>
  <text x="305" y="110" font-family="sans-serif" font-size="7" fill="#f0f0f0">Eggs x6</text>
  <text x="370" y="110" font-family="sans-serif" font-size="7" fill="#f0f0f0" text-anchor="end">240</text>
  <rect x="300" y="116" width="70" height="1" fill="#1e2d4e"/>
  <text x="305" y="128" font-family="sans-serif" font-size="8" font-weight="bold" fill="#4ade80">TOTAL</text>
  <text x="370" y="128" font-family="sans-serif" font-size="8" font-weight="bold" fill="#4ade80" text-anchor="end">440</text>
  <rect x="302" y="132" width="66" height="16" rx="8" fill="#15803d" opacity="0.3"/>
  <rect x="302" y="132" width="66" height="16" rx="8" stroke="#4ade80" stroke-width="1"/>
  <text x="335" y="143" font-family="sans-serif" font-size="6" fill="#4ade80" text-anchor="middle">✓ M-PESA PAID</text>
  <!-- Inventory badge -->
  <rect x="290" y="170" width="90" height="60" rx="10" fill="#141928" stroke="#1e2d4e" stroke-width="1"/>
  <text x="335" y="186" font-family="sans-serif" font-size="7" fill="#8892b0" text-anchor="middle">Low Stock Alert</text>
  <rect x="300" y="192" width="70" height="1" fill="#1e2d4e"/>
  <circle cx="308" cy="206" r="3" fill="#f59e0b"/>
  <rect x="316" y="202" width="44" height="7" rx="2" fill="#1e2d4e"/>
  <circle cx="308" cy="218" r="3" fill="#ef4444"/>
  <rect x="316" y="214" width="34" height="7" rx="2" fill="#1e2d4e"/>
</svg>
