<svg viewBox="0 0 400 280" xmlns="http://www.w3.org/2000/svg" fill="none">
  <rect width="400" height="280" rx="16" fill="#0f1117"/>
  <!-- Invoice card -->
  <rect x="14" y="14" width="210" height="252" rx="12" fill="#141928" stroke="#1e2d4e" stroke-width="1.5"/>
  <!-- Invoice header -->
  <rect x="14" y="14" width="210" height="52" rx="12" fill="#1a2038"/>
  <rect x="14" y="52" width="210" height="14" fill="#1a2038"/>
  <text x="34" y="35" font-family="sans-serif" font-size="8" font-weight="bold" fill="#f0f0f0">INVOICE #INV-0089</text>
  <text x="34" y="50" font-family="sans-serif" font-size="6" fill="#8892b0">Due: May 30, 2026</text>
  <!-- Client -->
  <text x="34" y="80" font-family="sans-serif" font-size="6" fill="#8892b0">Bill to:</text>
  <text x="34" y="93" font-family="sans-serif" font-size="7" font-weight="bold" fill="#f0f0f0">Danka Africa Ltd</text>
  <text x="34" y="105" font-family="sans-serif" font-size="6" fill="#8892b0">Kisumu, KE</text>
  <rect x="24" y="112" width="190" height="1" fill="#1e2d4e"/>
  <!-- Line items -->
  <text x="34" y="126" font-family="sans-serif" font-size="6" fill="#8892b0">Software License (Annual)</text>
  <text x="214" y="126" font-family="sans-serif" font-size="6" fill="#f0f0f0" text-anchor="end">120,000</text>
  <text x="34" y="140" font-family="sans-serif" font-size="6" fill="#8892b0">Support Retainer x 3mo</text>
  <text x="214" y="140" font-family="sans-serif" font-size="6" fill="#f0f0f0" text-anchor="end">45,000</text>
  <text x="34" y="154" font-family="sans-serif" font-size="6" fill="#8892b0">Setup and Training</text>
  <text x="214" y="154" font-family="sans-serif" font-size="6" fill="#f0f0f0" text-anchor="end">18,500</text>
  <rect x="24" y="160" width="190" height="1" fill="#1e2d4e"/>
  <!-- Total -->
  <text x="34" y="174" font-family="sans-serif" font-size="6" fill="#8892b0">Subtotal</text>
  <text x="214" y="174" font-family="sans-serif" font-size="6" fill="#f0f0f0" text-anchor="end">183,500</text>
  <text x="34" y="188" font-family="sans-serif" font-size="6" fill="#8892b0">VAT (16%)</text>
  <text x="214" y="188" font-family="sans-serif" font-size="6" fill="#f0f0f0" text-anchor="end">29,360</text>
  <rect x="24" y="194" width="190" height="1" fill="#1e2d4e"/>
  <text x="34" y="210" font-family="sans-serif" font-size="8" font-weight="bold" fill="#9100B0">TOTAL</text>
  <text x="214" y="210" font-family="sans-serif" font-size="9" font-weight="bold" fill="#9100B0" text-anchor="end">KES 212,860</text>
  <!-- Paid badge -->
  <rect x="24" y="220" width="100" height="18" rx="9" fill="#15803d" opacity="0.25"/>
  <rect x="24" y="220" width="100" height="18" rx="9" stroke="#4ade80" stroke-width="1"/>
  <text x="74" y="232" font-family="sans-serif" font-size="6" font-weight="bold" fill="#4ade80" text-anchor="middle">PAID via M-Pesa</text>
  <!-- Payment panel -->
  <rect x="234" y="14" width="152" height="90" rx="10" fill="#141928" stroke="#1e2d4e" stroke-width="1"/>
  <text x="310" y="32" font-family="sans-serif" font-size="7" fill="#8892b0" text-anchor="middle">Payment Gateways</text>
  <rect x="244" y="38" width="132" height="1" fill="#1e2d4e"/>
  <rect x="244" y="46" width="62" height="22" rx="6" fill="#15803d" opacity="0.3"/>
  <rect x="244" y="46" width="62" height="22" rx="6" stroke="#4ade80" stroke-width="1"/>
  <text x="275" y="60" font-family="sans-serif" font-size="7" fill="#4ade80" text-anchor="middle">M-Pesa</text>
  <rect x="314" y="46" width="62" height="22" rx="6" fill="#9100B0" opacity="0.2"/>
  <rect x="314" y="46" width="62" height="22" rx="6" stroke="#9100B0" stroke-width="1"/>
  <text x="345" y="60" font-family="sans-serif" font-size="7" fill="#9100B0" text-anchor="middle">Paystack</text>
  <rect x="244" y="74" width="132" height="22" rx="6" fill="#1e2d4e"/>
  <text x="310" y="88" font-family="sans-serif" font-size="6" fill="#8892b0" text-anchor="middle">Visa / Mastercard</text>
  <!-- Project tracker -->
  <rect x="234" y="114" width="152" height="138" rx="10" fill="#141928" stroke="#1e2d4e" stroke-width="1"/>
  <text x="310" y="132" font-family="sans-serif" font-size="7" fill="#8892b0" text-anchor="middle">Projects</text>
  <rect x="244" y="138" width="132" height="1" fill="#1e2d4e"/>
  <text x="244" y="153" font-family="sans-serif" font-size="6" fill="#8892b0">Website Redesign</text>
  <rect x="244" y="158" width="132" height="7" rx="3" fill="#1e2d4e"/>
  <rect x="244" y="158" width="102" height="7" rx="3" fill="#9100B0" opacity="0.7"/>
  <text x="376" y="164" font-family="sans-serif" font-size="5" fill="#9100B0" text-anchor="end">77%</text>
  <text x="244" y="178" font-family="sans-serif" font-size="6" fill="#8892b0">ERP Integration</text>
  <rect x="244" y="183" width="132" height="7" rx="3" fill="#1e2d4e"/>
  <rect x="244" y="183" width="70" height="7" rx="3" fill="#38bdf8" opacity="0.7"/>
  <text x="376" y="189" font-family="sans-serif" font-size="5" fill="#38bdf8" text-anchor="end">53%</text>
  <text x="244" y="203" font-family="sans-serif" font-size="6" fill="#8892b0">Staff Training</text>
  <rect x="244" y="208" width="132" height="7" rx="3" fill="#1e2d4e"/>
  <rect x="244" y="208" width="122" height="7" rx="3" fill="#4ade80" opacity="0.7"/>
  <text x="376" y="214" font-family="sans-serif" font-size="5" fill="#4ade80" text-anchor="end">92%</text>
  <rect x="244" y="222" width="132" height="1" fill="#1e2d4e"/>
  <!-- Team avatars -->
  <text x="244" y="237" font-family="sans-serif" font-size="6" fill="#8892b0">Team</text>
  <circle cx="305" cy="235" r="8" fill="#9100B0" opacity="0.5"/>
  <circle cx="320" cy="235" r="8" fill="#38bdf8" opacity="0.5"/>
  <circle cx="335" cy="235" r="8" fill="#f59e0b" opacity="0.5"/>
  <text x="348" y="239" font-family="sans-serif" font-size="6" fill="#8892b0">+4</text>
</svg>
