<svg viewBox="0 0 560 280" fill="none" xmlns="http://www.w3.org/2000/svg">
  <rect width="560" height="280" rx="16" fill="#0f1117"/>
  <!-- Grid -->
  <line x1="0" y1="70" x2="560" y2="70" stroke="#1a1f2e" stroke-width="1"/>
  <line x1="0" y1="140" x2="560" y2="140" stroke="#1a1f2e" stroke-width="1"/>
  <line x1="0" y1="210" x2="560" y2="210" stroke="#1a1f2e" stroke-width="1"/>
  <line x1="140" y1="0" x2="140" y2="280" stroke="#1a1f2e" stroke-width="1"/>
  <line x1="280" y1="0" x2="280" y2="280" stroke="#1a1f2e" stroke-width="1"/>
  <line x1="420" y1="0" x2="420" y2="280" stroke="#1a1f2e" stroke-width="1"/>

  <!-- Central cloud node -->
  <circle cx="280" cy="130" r="36" fill="#1a1f2e" stroke="#f59e0b" stroke-width="2"/>
  <text x="280" y="124" text-anchor="middle" font-family="sans-serif" font-size="10" fill="#f59e0b" font-weight="bold">CLOUD</text>
  <text x="280" y="137" text-anchor="middle" font-family="sans-serif" font-size="8" fill="#8892b0">Core API</text>
  <circle cx="280" cy="130" r="28" fill="none" stroke="#f59e0b20" stroke-width="8"/>

  <!-- IoT weighbridge node (top-left) -->
  <circle cx="100" cy="70" r="28" fill="#1a1f2e" stroke="#38bdf8" stroke-width="1.5"/>
  <text x="100" y="65" text-anchor="middle" font-family="monospace" font-size="8" fill="#38bdf8">IoT</text>
  <text x="100" y="76" text-anchor="middle" font-family="monospace" font-size="7" fill="#8892b0">Sensor</text>
  <line x1="125" y1="85" x2="248" y2="112" stroke="#38bdf8" stroke-width="1.5" stroke-dasharray="4,3"/>
  <!-- Animated data pulse -->
  <circle cx="175" cy="98" r="4" fill="#38bdf8" opacity="0.7"/>

  <!-- Router node (top) -->
  <circle cx="280" cy="48" r="22" fill="#1a1f2e" stroke="#6c47ff" stroke-width="1.5"/>
  <text x="280" y="43" text-anchor="middle" font-family="monospace" font-size="8" fill="#6c47ff">Router</text>
  <text x="280" y="54" text-anchor="middle" font-family="monospace" font-size="7" fill="#8892b0">MikroTik</text>
  <line x1="280" y1="70" x2="280" y2="94" stroke="#6c47ff" stroke-width="1.5" stroke-dasharray="4,3"/>
  <circle cx="280" cy="80" r="3.5" fill="#6c47ff" opacity="0.7"/>

  <!-- Camera node (top-right) -->
  <circle cx="460" cy="70" r="28" fill="#1a1f2e" stroke="#4ade80" stroke-width="1.5"/>
  <text x="460" y="65" text-anchor="middle" font-family="monospace" font-size="8" fill="#4ade80">Camera</text>
  <text x="460" y="76" text-anchor="middle" font-family="monospace" font-size="7" fill="#8892b0">RTSP</text>
  <line x1="435" y1="85" x2="312" y2="112" stroke="#4ade80" stroke-width="1.5" stroke-dasharray="4,3"/>
  <circle cx="375" cy="98" r="4" fill="#4ade80" opacity="0.7"/>

  <!-- Mobile tablet node (bottom-left) -->
  <circle cx="100" cy="200" r="28" fill="#1a1f2e" stroke="#a855f7" stroke-width="1.5"/>
  <text x="100" y="195" text-anchor="middle" font-family="monospace" font-size="8" fill="#a855f7">Mobile</text>
  <text x="100" y="206" text-anchor="middle" font-family="monospace" font-size="7" fill="#8892b0">Tablet</text>
  <line x1="125" y1="186" x2="248" y2="150" stroke="#a855f7" stroke-width="1.5" stroke-dasharray="4,3"/>
  <circle cx="185" cy="168" r="4" fill="#a855f7" opacity="0.7"/>

  <!-- ISP subscribers (bottom) -->
  <circle cx="280" cy="218" r="22" fill="#1a1f2e" stroke="#38bdf8" stroke-width="1.5"/>
  <text x="280" y="213" text-anchor="middle" font-family="monospace" font-size="7" fill="#38bdf8">Subscriber</text>
  <text x="280" y="224" text-anchor="middle" font-family="monospace" font-size="7" fill="#8892b0">Portal</text>
  <line x1="280" y1="196" x2="280" y2="166" stroke="#38bdf8" stroke-width="1.5" stroke-dasharray="4,3"/>
  <circle cx="280" cy="182" r="3.5" fill="#38bdf8" opacity="0.7"/>

  <!-- Dashboard node (bottom-right) -->
  <circle cx="460" cy="200" r="28" fill="#1a1f2e" stroke="#f59e0b" stroke-width="1.5"/>
  <text x="460" y="195" text-anchor="middle" font-family="monospace" font-size="8" fill="#f59e0b">Dashboard</text>
  <text x="460" y="206" text-anchor="middle" font-family="monospace" font-size="7" fill="#8892b0">Analytics</text>
  <line x1="435" y1="186" x2="312" y2="150" stroke="#f59e0b" stroke-width="1.5" stroke-dasharray="4,3"/>
  <circle cx="375" cy="168" r="4" fill="#f59e0b" opacity="0.7"/>

  <!-- Status badges -->
  <rect x="32" y="104" width="56" height="14" rx="7" fill="#4ade8020" stroke="#4ade8040" stroke-width="1"/>
  <text x="60" y="114" text-anchor="middle" font-family="sans-serif" font-size="7" fill="#4ade80" font-weight="bold">LIVE · 99.9%</text>

  <!-- Info tags bottom -->
  <rect x="24" y="240" width="100" height="22" rx="6" fill="#38bdf810" stroke="#38bdf830" stroke-width="1"/>
  <text x="74" y="249" text-anchor="middle" font-family="sans-serif" font-size="7" fill="#38bdf8" font-weight="bold">Zero-Touch ISP</text>
  <text x="74" y="259" text-anchor="middle" font-family="sans-serif" font-size="7" fill="#8892b0">Auto provisioning</text>

  <rect x="134" y="240" width="100" height="22" rx="6" fill="#6c47ff10" stroke="#6c47ff30" stroke-width="1"/>
  <text x="184" y="249" text-anchor="middle" font-family="sans-serif" font-size="7" fill="#6c47ff" font-weight="bold">TruLoad IoT</text>
  <text x="184" y="259" text-anchor="middle" font-family="sans-serif" font-size="7" fill="#8892b0">Tamper-proof axle data</text>

  <rect x="244" y="240" width="100" height="22" rx="6" fill="#4ade8010" stroke="#4ade8030" stroke-width="1"/>
  <text x="294" y="249" text-anchor="middle" font-family="sans-serif" font-size="7" fill="#4ade80" font-weight="bold">Camera AI</text>
  <text x="294" y="259" text-anchor="middle" font-family="sans-serif" font-size="7" fill="#8892b0">RTSP plate reading</text>

  <rect x="354" y="240" width="100" height="22" rx="6" fill="#f59e0b10" stroke="#f59e0b30" stroke-width="1"/>
  <text x="404" y="249" text-anchor="middle" font-family="sans-serif" font-size="7" fill="#f59e0b" font-weight="bold">Real-time Sync</text>
  <text x="404" y="259" text-anchor="middle" font-family="sans-serif" font-size="7" fill="#8892b0">Hardware to cloud</text>

  <rect x="454" y="240" width="82" height="22" rx="6" fill="#a855f710" stroke="#a855f730" stroke-width="1"/>
  <text x="495" y="249" text-anchor="middle" font-family="sans-serif" font-size="7" fill="#a855f7" font-weight="bold">Mobile PWA</text>
  <text x="495" y="259" text-anchor="middle" font-family="sans-serif" font-size="7" fill="#8892b0">Field enforcement</text>

  <text x="280" y="276" text-anchor="middle" font-family="sans-serif" font-size="9" fill="#f59e0b" font-weight="bold" letter-spacing="2">NETWORK · HARDWARE · AUTOMATIONS</text>
</svg>
