<svg viewBox="0 0 560 280" fill="none" xmlns="http://www.w3.org/2000/svg">
  <rect width="560" height="280" rx="16" fill="#0f1117"/>
  <!-- Grid -->
  <line x1="0" y1="70" x2="560" y2="70" stroke="#1a1f2e" stroke-width="1"/>
  <line x1="0" y1="140" x2="560" y2="140" stroke="#1a1f2e" stroke-width="1"/>
  <line x1="0" y1="210" x2="560" y2="210" stroke="#1a1f2e" stroke-width="1"/>
  <line x1="140" y1="0" x2="140" y2="280" stroke="#1a1f2e" stroke-width="1"/>
  <line x1="280" y1="0" x2="280" y2="280" stroke="#1a1f2e" stroke-width="1"/>
  <line x1="420" y1="0" x2="420" y2="280" stroke="#1a1f2e" stroke-width="1"/>

  <!-- Server rack (left) -->
  <rect x="24" y="32" width="120" height="200" rx="8" fill="#151b2a" stroke="#1e2640" stroke-width="1.5"/>
  <text x="84" y="52" text-anchor="middle" font-family="sans-serif" font-size="9" fill="#4ade80" font-weight="bold">Cloud Servers</text>
  <!-- Server units -->
  <rect x="34" y="60" width="100" height="18" rx="3" fill="#1e2640" stroke="#4ade8030" stroke-width="1"/>
  <circle cx="44" cy="69" r="3" fill="#4ade80"/>
  <rect x="52" y="65" width="60" height="5" rx="2" fill="#0f1117"/>
  <rect x="52" y="65" width="42" height="5" rx="2" fill="#4ade8060"/>
  <text x="120" y="72" text-anchor="middle" font-family="monospace" font-size="6" fill="#4ade80">01</text>

  <rect x="34" y="82" width="100" height="18" rx="3" fill="#1e2640" stroke="#4ade8030" stroke-width="1"/>
  <circle cx="44" cy="91" r="3" fill="#4ade80"/>
  <rect x="52" y="87" width="60" height="5" rx="2" fill="#0f1117"/>
  <rect x="52" y="87" width="55" height="5" rx="2" fill="#4ade8060"/>
  <text x="120" y="94" text-anchor="middle" font-family="monospace" font-size="6" fill="#4ade80">02</text>

  <rect x="34" y="104" width="100" height="18" rx="3" fill="#1e2640" stroke="#38bdf830" stroke-width="1"/>
  <circle cx="44" cy="113" r="3" fill="#38bdf8"/>
  <rect x="52" y="109" width="60" height="5" rx="2" fill="#0f1117"/>
  <rect x="52" y="109" width="38" height="5" rx="2" fill="#38bdf860"/>
  <text x="120" y="116" text-anchor="middle" font-family="monospace" font-size="6" fill="#38bdf8">03</text>

  <rect x="34" y="126" width="100" height="18" rx="3" fill="#1e2640" stroke="#4ade8030" stroke-width="1"/>
  <circle cx="44" cy="135" r="3" fill="#4ade80"/>
  <rect x="52" y="131" width="60" height="5" rx="2" fill="#0f1117"/>
  <rect x="52" y="131" width="50" height="5" rx="2" fill="#4ade8060"/>
  <text x="120" y="138" text-anchor="middle" font-family="monospace" font-size="6" fill="#4ade80">04</text>

  <rect x="34" y="148" width="100" height="18" rx="3" fill="#1e2640" stroke="#f59e0b30" stroke-width="1"/>
  <circle cx="44" cy="157" r="3" fill="#f59e0b"/>
  <rect x="52" y="153" width="60" height="5" rx="2" fill="#0f1117"/>
  <rect x="52" y="153" width="46" height="5" rx="2" fill="#f59e0b60"/>
  <text x="120" y="160" text-anchor="middle" font-family="monospace" font-size="6" fill="#f59e0b">DB</text>

  <!-- Uptime indicator -->
  <rect x="34" y="175" width="100" height="30" rx="4" fill="#4ade8010" stroke="#4ade8030" stroke-width="1"/>
  <text x="84" y="186" text-anchor="middle" font-family="sans-serif" font-size="7" fill="#8892b0">Uptime</text>
  <text x="84" y="199" text-anchor="middle" font-family="sans-serif" font-size="14" fill="#4ade80" font-weight="bold">99.97%</text>

  <!-- Domain management (top center) -->
  <rect x="168" y="32" width="220" height="90" rx="8" fill="#151b2a" stroke="#1e2640" stroke-width="1.5"/>
  <text x="278" y="52" text-anchor="middle" font-family="sans-serif" font-size="9" fill="#38bdf8" font-weight="bold">Domain Management</text>
  <!-- Domain entries -->
  <rect x="178" y="60" width="200" height="14" rx="4" fill="#1e2640"/>
  <circle cx="190" cy="67" r="4" fill="#4ade80"/>
  <text x="200" y="71" font-family="monospace" font-size="8" fill="#c9d1d9">erp.codevertexitsolutions.com</text>
  <rect x="178" y="78" width="200" height="14" rx="4" fill="#1e2640"/>
  <circle cx="190" cy="85" r="4" fill="#4ade80"/>
  <text x="200" y="89" font-family="monospace" font-size="8" fill="#c9d1d9">truload.codevertexitsolutions.com</text>
  <rect x="178" y="96" width="200" height="14" rx="4" fill="#1e2640"/>
  <circle cx="190" cy="103" r="4" fill="#38bdf8"/>
  <text x="200" y="107" font-family="monospace" font-size="8" fill="#c9d1d9">*.codevertexitsolutions.com</text>

  <!-- Security panel (center) -->
  <rect x="168" y="132" width="220" height="100" rx="8" fill="#151b2a" stroke="#9100B0" stroke-width="1.5"/>
  <text x="278" y="152" text-anchor="middle" font-family="sans-serif" font-size="9" fill="#9100B0" font-weight="bold">Security and Compliance</text>
  <!-- Shield icon -->
  <path d="M278 164 L266 170 L266 184 Q266 194 278 198 Q290 194 290 184 L290 170 Z" fill="#9100B020" stroke="#9100B0" stroke-width="1.5"/>
  <text x="278" y="186" text-anchor="middle" font-family="sans-serif" font-size="12" fill="#9100B0">✓</text>
  <!-- Security badges -->
  <rect x="178" y="202" width="72" height="18" rx="5" fill="#9100B015" stroke="#9100B030" stroke-width="1"/>
  <text x="214" y="214" text-anchor="middle" font-family="monospace" font-size="7" fill="#9100B0">OAuth 2.0</text>
  <rect x="256" y="202" width="72" height="18" rx="5" fill="#4ade8015" stroke="#4ade8030" stroke-width="1"/>
  <text x="292" y="214" text-anchor="middle" font-family="monospace" font-size="7" fill="#4ade80">AES-256</text>
  <rect x="334" y="202" width="48" height="18" rx="5" fill="#38bdf815" stroke="#38bdf830" stroke-width="1"/>
  <text x="358" y="214" text-anchor="middle" font-family="monospace" font-size="7" fill="#38bdf8">TLS 1.3</text>

  <!-- Backup + DR (right) -->
  <rect x="408" y="32" width="128" height="90" rx="8" fill="#151b2a" stroke="#1e2640" stroke-width="1.5"/>
  <text x="472" y="52" text-anchor="middle" font-family="sans-serif" font-size="9" fill="#f59e0b" font-weight="bold">Backup and DR</text>
  <!-- Disk icons -->
  <ellipse cx="450" cy="80" rx="22" ry="8" fill="#f59e0b20" stroke="#f59e0b" stroke-width="1.5"/>
  <rect x="428" y="80" width="44" height="20" fill="#f59e0b10" stroke="#f59e0b" stroke-width="1.5"/>
  <ellipse cx="450" cy="100" rx="22" ry="8" fill="#f59e0b20" stroke="#f59e0b" stroke-width="1.5"/>
  <text x="450" y="116" text-anchor="middle" font-family="sans-serif" font-size="7" fill="#f59e0b">Auto Snapshot</text>

  <!-- CDN / Region nodes -->
  <rect x="408" y="132" width="128" height="100" rx="8" fill="#151b2a" stroke="#1e2640" stroke-width="1.5"/>
  <text x="472" y="152" text-anchor="middle" font-family="sans-serif" font-size="9" fill="#9100B0" font-weight="bold">Managed CDN</text>
  <circle cx="450" cy="178" r="12" fill="#9100B020" stroke="#9100B0" stroke-width="1.5"/>
  <text x="450" y="182" text-anchor="middle" font-family="monospace" font-size="7" fill="#9100B0">KE</text>
  <circle cx="488" cy="178" r="12" fill="#9100B020" stroke="#9100B0" stroke-width="1.5"/>
  <text x="488" y="182" text-anchor="middle" font-family="monospace" font-size="7" fill="#9100B0">NG</text>
  <line x1="462" y1="178" x2="476" y2="178" stroke="#9100B060" stroke-width="1.5" stroke-dasharray="3,2"/>
  <text x="469" y="206" text-anchor="middle" font-family="sans-serif" font-size="7" fill="#8892b0">Multi-region</text>
  <text x="469" y="218" text-anchor="middle" font-family="sans-serif" font-size="7" fill="#8892b0">Failover ready</text>

  <!-- Connection lines -->
  <line x1="144" y1="140" x2="168" y2="140" stroke="#4ade8040" stroke-width="1" stroke-dasharray="3,2"/>
  <line x1="388" y1="80" x2="408" y2="80" stroke="#f59e0b40" stroke-width="1" stroke-dasharray="3,2"/>
  <line x1="388" y1="180" x2="408" y2="180" stroke="#9100B040" stroke-width="1" stroke-dasharray="3,2"/>

  <text x="280" y="250" text-anchor="middle" font-family="sans-serif" font-size="9" fill="#4ade80" font-weight="bold" letter-spacing="1">SECURE · RESILIENT · MANAGED CLOUD INFRASTRUCTURE</text>
  <text x="280" y="266" text-anchor="middle" font-family="sans-serif" font-size="8" fill="#8892b0">.co.ke · .com · .africa · SSL · WAF · Disaster Recovery</text>
</svg>
