<svg viewBox="0 0 560 280" fill="none" xmlns="http://www.w3.org/2000/svg">
  <rect width="560" height="280" rx="16" fill="#0f1117"/>
  <!-- Grid -->
  <line x1="0" y1="70" x2="560" y2="70" stroke="#1a1f2e" stroke-width="1"/>
  <line x1="0" y1="140" x2="560" y2="140" stroke="#1a1f2e" stroke-width="1"/>
  <line x1="0" y1="210" x2="560" y2="210" stroke="#1a1f2e" stroke-width="1"/>
  <line x1="140" y1="0" x2="140" y2="280" stroke="#1a1f2e" stroke-width="1"/>
  <line x1="280" y1="0" x2="280" y2="280" stroke="#1a1f2e" stroke-width="1"/>
  <line x1="420" y1="0" x2="420" y2="280" stroke="#1a1f2e" stroke-width="1"/>

  <!-- Code editor left -->
  <rect x="24" y="24" width="240" height="200" rx="10" fill="#151b2a" stroke="#1e2640" stroke-width="1.5"/>
  <!-- Editor chrome -->
  <rect x="24" y="24" width="240" height="28" rx="10" fill="#1e2640"/>
  <rect x="24" y="44" width="240" height="8" fill="#1e2640"/>
  <circle cx="42" cy="38" r="4.5" fill="#ff5f57"/>
  <circle cx="56" cy="38" r="4.5" fill="#febc2e"/>
  <circle cx="70" cy="38" r="4.5" fill="#28c840"/>
  <text x="144" y="42" text-anchor="middle" font-family="monospace" font-size="10" fill="#8892b0">app.tsx</text>

  <!-- Line numbers -->
  <rect x="24" y="52" width="24" height="172" fill="#0f1117"/>
  <text x="36" y="70" text-anchor="middle" font-family="monospace" font-size="7" fill="#3d4f6d">01</text>
  <text x="36" y="83" text-anchor="middle" font-family="monospace" font-size="7" fill="#3d4f6d">02</text>
  <text x="36" y="96" text-anchor="middle" font-family="monospace" font-size="7" fill="#3d4f6d">03</text>
  <text x="36" y="109" text-anchor="middle" font-family="monospace" font-size="7" fill="#3d4f6d">04</text>
  <text x="36" y="122" text-anchor="middle" font-family="monospace" font-size="7" fill="#3d4f6d">05</text>
  <text x="36" y="135" text-anchor="middle" font-family="monospace" font-size="7" fill="#3d4f6d">06</text>
  <text x="36" y="148" text-anchor="middle" font-family="monospace" font-size="7" fill="#3d4f6d">07</text>
  <text x="36" y="161" text-anchor="middle" font-family="monospace" font-size="7" fill="#3d4f6d">08</text>
  <text x="36" y="174" text-anchor="middle" font-family="monospace" font-size="7" fill="#3d4f6d">09</text>
  <text x="36" y="187" text-anchor="middle" font-family="monospace" font-size="7" fill="#3d4f6d">10</text>
  <text x="36" y="200" text-anchor="middle" font-family="monospace" font-size="7" fill="#3d4f6d">11</text>
  <text x="36" y="213" text-anchor="middle" font-family="monospace" font-size="7" fill="#3d4f6d">12</text>

  <!-- Code lines -->
  <text x="56" y="70" font-family="monospace" font-size="8" fill="#ff7b72">import</text>
  <text x="97" y="70" font-family="monospace" font-size="8" fill="#c9d1d9"> React </text>
  <text x="130" y="70" font-family="monospace" font-size="8" fill="#ff7b72">from</text>
  <text x="157" y="70" font-family="monospace" font-size="8" fill="#a5d6ff"> 'react'</text>

  <text x="56" y="83" font-family="monospace" font-size="8" fill="#ff7b72">import</text>
  <text x="97" y="83" font-family="monospace" font-size="8" fill="#c9d1d9"> { api } </text>
  <text x="137" y="83" font-family="monospace" font-size="8" fill="#ff7b72">from</text>
  <text x="160" y="83" font-family="monospace" font-size="8" fill="#a5d6ff"> '@/lib'</text>

  <rect x="56" y="88" width="130" height="9" rx="2" fill="#6c47ff15"/>
  <text x="56" y="96" font-family="monospace" font-size="8" fill="#79c0ff">export </text>
  <text x="95" y="96" font-family="monospace" font-size="8" fill="#ff7b72">default </text>
  <text x="140" y="96" font-family="monospace" font-size="8" fill="#f8cc67">App</text>
  <text x="155" y="96" font-family="monospace" font-size="8" fill="#c9d1d9">() =&gt;</text>

  <text x="56" y="109" font-family="monospace" font-size="8" fill="#c9d1d9">  return (</text>
  <text x="56" y="122" font-family="monospace" font-size="8" fill="#c9d1d9">    </text>
  <text x="74" y="122" font-family="monospace" font-size="8" fill="#7ee787">&lt;Dashboard</text>
  <text x="56" y="135" font-family="monospace" font-size="8" fill="#c9d1d9">      </text>
  <text x="86" y="135" font-family="monospace" font-size="8" fill="#f8cc67">data</text>
  <text x="112" y="135" font-family="monospace" font-size="8" fill="#c9d1d9">={</text>
  <text x="122" y="135" font-family="monospace" font-size="8" fill="#79c0ff">api.metrics</text>
  <text x="191" y="135" font-family="monospace" font-size="8" fill="#c9d1d9">}</text>
  <text x="56" y="148" font-family="monospace" font-size="8" fill="#c9d1d9">      </text>
  <text x="86" y="148" font-family="monospace" font-size="8" fill="#f8cc67">theme</text>
  <text x="116" y="148" font-family="monospace" font-size="8" fill="#c9d1d9">="</text>
  <text x="126" y="148" font-family="monospace" font-size="8" fill="#a5d6ff">dark</text>
  <text x="150" y="148" font-family="monospace" font-size="8" fill="#c9d1d9">"</text>
  <text x="56" y="161" font-family="monospace" font-size="8" fill="#7ee787">    /&gt;</text>
  <text x="56" y="174" font-family="monospace" font-size="8" fill="#c9d1d9">  )</text>
  <text x="56" y="187" font-family="monospace" font-size="8" fill="#c9d1d9">}</text>
  <!-- Cursor blink -->
  <rect x="68" y="189" width="6" height="10" rx="1" fill="#6c47ff" opacity="0.8"/>

  <!-- Git branches diagram (center) -->
  <text x="290" y="45" text-anchor="middle" font-family="sans-serif" font-size="10" fill="#8892b0" font-weight="bold">GIT WORKFLOW</text>
  <circle cx="290" cy="80" r="8" fill="#6c47ff"/>
  <text x="290" y="84" text-anchor="middle" font-family="monospace" font-size="7" fill="white">main</text>
  <line x1="290" y1="88" x2="290" y2="108" stroke="#6c47ff" stroke-width="1.5" stroke-dasharray="3,2"/>
  <circle cx="290" cy="116" r="6" fill="#1e2640" stroke="#6c47ff" stroke-width="1.5"/>
  <line x1="284" y1="116" x2="254" y2="140" stroke="#38bdf8" stroke-width="1.5" stroke-dasharray="3,2"/>
  <circle cx="250" cy="148" r="6" fill="#1e2640" stroke="#38bdf8" stroke-width="1.5"/>
  <text x="236" y="165" font-family="monospace" font-size="7" fill="#38bdf8">feature</text>
  <line x1="296" y1="116" x2="326" y2="140" stroke="#4ade80" stroke-width="1.5" stroke-dasharray="3,2"/>
  <circle cx="330" cy="148" r="6" fill="#1e2640" stroke="#4ade80" stroke-width="1.5"/>
  <text x="320" y="165" font-family="monospace" font-size="7" fill="#4ade80">hotfix</text>
  <line x1="254" y1="154" x2="280" y2="180" stroke="#38bdf8" stroke-width="1.5" stroke-dasharray="3,2"/>
  <line x1="330" y1="154" x2="300" y2="180" stroke="#4ade80" stroke-width="1.5" stroke-dasharray="3,2"/>
  <circle cx="290" cy="188" r="8" fill="#6c47ff"/>
  <text x="290" y="192" text-anchor="middle" font-family="monospace" font-size="7" fill="white">merge</text>

  <!-- Deploy tag -->
  <rect x="258" y="205" width="64" height="16" rx="8" fill="#4ade8020" stroke="#4ade8040" stroke-width="1"/>
  <text x="290" y="216" text-anchor="middle" font-family="sans-serif" font-size="7" fill="#4ade80" font-weight="bold">DEPLOYED</text>

  <!-- Mobile device (right) -->
  <rect x="420" y="50" width="100" height="178" rx="16" fill="#151b2a" stroke="#1e2640" stroke-width="1.5"/>
  <rect x="448" y="56" width="44" height="6" rx="3" fill="#1e2640"/>
  <circle cx="470" cy="220" r="8" fill="#1e2640" stroke="#0f1117" stroke-width="1.5"/>
  <!-- App screen -->
  <rect x="428" y="70" width="84" height="140" rx="4" fill="#0f1117"/>
  <!-- App header -->
  <rect x="428" y="70" width="84" height="22" fill="#151b2a"/>
  <circle cx="442" cy="81" r="5" fill="#6c47ff"/>
  <text x="466" y="85" text-anchor="middle" font-family="sans-serif" font-size="7" fill="white" font-weight="bold">MyApp</text>
  <!-- App content -->
  <rect x="434" y="98" width="72" height="28" rx="4" fill="#1e2640"/>
  <rect x="438" y="103" width="30" height="5" rx="2" fill="#6c47ff60"/>
  <text x="438" y="115" font-family="sans-serif" font-size="6" fill="#8892b0">Revenue</text>
  <text x="438" y="123" font-family="sans-serif" font-size="9" fill="white" font-weight="bold">KSh 84k</text>
  <rect x="434" y="132" width="72" height="28" rx="4" fill="#1e2640"/>
  <text x="438" y="145" font-family="sans-serif" font-size="6" fill="#8892b0">Orders</text>
  <text x="438" y="153" font-family="sans-serif" font-size="9" fill="white" font-weight="bold">142 today</text>
  <!-- Bottom nav -->
  <rect x="428" y="196" width="84" height="14" fill="#151b2a"/>
  <text x="444" y="206" text-anchor="middle" font-family="sans-serif" font-size="8" fill="#6c47ff">⊞</text>
  <text x="462" y="206" text-anchor="middle" font-family="sans-serif" font-size="8" fill="#8892b0">↑</text>
  <text x="480" y="206" text-anchor="middle" font-family="sans-serif" font-size="8" fill="#8892b0">◎</text>
  <text x="498" y="206" text-anchor="middle" font-family="sans-serif" font-size="8" fill="#8892b0">☰</text>

  <!-- Tech stack tags -->
  <rect x="24" y="236" width="52" height="16" rx="8" fill="#38bdf815" stroke="#38bdf840" stroke-width="1"/>
  <text x="50" y="247" text-anchor="middle" font-family="monospace" font-size="7" fill="#38bdf8">React</text>
  <rect x="82" y="236" width="52" height="16" rx="8" fill="#4ade8015" stroke="#4ade8040" stroke-width="1"/>
  <text x="108" y="247" text-anchor="middle" font-family="monospace" font-size="7" fill="#4ade80">Next.js</text>
  <rect x="140" y="236" width="52" height="16" rx="8" fill="#f59e0b15" stroke="#f59e0b40" stroke-width="1"/>
  <text x="166" y="247" text-anchor="middle" font-family="monospace" font-size="7" fill="#f59e0b">Go / gRPC</text>
  <rect x="198" y="236" width="52" height="16" rx="8" fill="#6c47ff15" stroke="#6c47ff40" stroke-width="1"/>
  <text x="224" y="247" text-anchor="middle" font-family="monospace" font-size="7" fill="#6c47ff">PostgreSQL</text>
  <rect x="256" y="236" width="52" height="16" rx="8" fill="#a855f715" stroke="#a855f740" stroke-width="1"/>
  <text x="282" y="247" text-anchor="middle" font-family="monospace" font-size="7" fill="#a855f7">K8s</text>

  <text x="280" y="270" text-anchor="middle" font-family="sans-serif" font-size="10" fill="#6c47ff" font-weight="bold" letter-spacing="2">ENTERPRISE SOFTWARE SOLUTIONS</text>
</svg>
